<svg xmlns="http://www.w3.org/2000/svg" xmlns:xlink="http://www.w3.org/1999/xlink" width="127" zoomAndPan="magnify" viewBox="0 0 95.25 94.499998" height="126" preserveAspectRatio="xMidYMid meet" version="1.0"><defs><g/><clipPath id="9c94345621"><path d="M 0 0.121094 L 94.050781 0.121094 L 94.050781 93.789062 L 0 93.789062 Z M 0 0.121094 " clip-rule="nonzero"/></clipPath><clipPath id="1210a52fdc"><path d="M 16.816406 20.609375 L 32 20.609375 L 32 36 L 16.816406 36 Z M 16.816406 20.609375 " clip-rule="nonzero"/></clipPath><clipPath id="b5d6f19fa8"><path d="M 53 25 L 63 25 L 63 39.496094 L 53 39.496094 Z M 53 25 " clip-rule="nonzero"/></clipPath><clipPath id="a84ae85596"><path d="M 64 20.609375 L 67 20.609375 L 67 36 L 64 36 Z M 64 20.609375 " clip-rule="nonzero"/></clipPath><clipPath id="04cdbf2ad1"><path d="M 68 25 L 77.195312 25 L 77.195312 36 L 68 36 Z M 68 25 " clip-rule="nonzero"/></clipPath><clipPath id="b3f20c2ec9"><path d="M 37 37.15625 L 57 37.15625 L 57 55 L 37 55 Z M 37 37.15625 " clip-rule="nonzero"/></clipPath><clipPath id="82ae8eaec7"><path d="M 38 37.15625 L 56 37.15625 L 56 55 L 38 55 Z M 38 37.15625 " clip-rule="nonzero"/></clipPath><clipPath id="391e5a8fd4"><path d="M 72 50 L 82.183594 50 L 82.183594 59.953125 L 72 59.953125 Z M 72 50 " clip-rule="nonzero"/></clipPath><clipPath id="51383a9877"><path d="M 72 50 L 82 50 L 82 59.953125 L 72 59.953125 Z M 72 50 " clip-rule="nonzero"/></clipPath><clipPath id="a69bcd30ed"><path d="M 73 53 L 82 53 L 82 59.953125 L 73 59.953125 Z M 73 53 " clip-rule="nonzero"/></clipPath><clipPath id="5100f32abb"><path d="M 12 50 L 23 50 L 23 59.953125 L 12 59.953125 Z M 12 50 " clip-rule="nonzero"/></clipPath><clipPath id="116587743e"><path d="M 12 50 L 22 50 L 22 59.953125 L 12 59.953125 Z M 12 50 " clip-rule="nonzero"/></clipPath><clipPath id="ef1c249908"><path d="M 13 53 L 22 53 L 22 59.953125 L 13 59.953125 Z M 13 53 " clip-rule="nonzero"/></clipPath></defs><g clip-path="url(#9c94345621)"><path fill="#ffc30f" d="M 47.011719 0.125 L 54.351562 8.085938 L 64.070312 3.316406 L 68.035156 13.390625 L 78.820312 12.449219 L 78.878906 23.277344 L 89.277344 26.296875 L 85.421875 36.414062 L 94.023438 42.984375 L 86.773438 51.023438 L 92.425781 60.261719 L 82.757812 65.140625 L 84.691406 75.792969 L 73.914062 76.851562 L 71.867188 87.484375 L 61.4375 84.578125 L 55.6875 93.75 L 47.011719 87.273438 L 38.335938 93.75 L 32.585938 84.578125 L 22.15625 87.484375 L 20.109375 76.851562 L 9.335938 75.792969 L 11.265625 65.140625 L 1.601562 60.261719 L 7.25 51.023438 L 0 42.984375 L 8.601562 36.414062 L 4.75 26.296875 L 15.144531 23.277344 L 15.203125 12.449219 L 25.992188 13.390625 L 29.957031 3.316406 L 39.675781 8.085938 Z M 47.011719 0.125 " fill-opacity="1" fill-rule="nonzero"/></g><path fill="#ffffff" d="M 47.011719 2.59375 L 53.964844 10.132812 L 63.167969 5.613281 L 66.925781 15.15625 L 77.144531 14.265625 L 77.203125 24.523438 L 87.050781 27.382812 L 83.398438 36.96875 L 91.546875 43.191406 L 84.679688 50.808594 L 90.03125 59.558594 L 80.875 64.183594 L 82.707031 74.273438 L 72.5 75.277344 L 70.558594 85.347656 L 60.679688 82.59375 L 55.230469 91.285156 L 47.011719 85.148438 L 38.792969 91.285156 L 33.347656 82.59375 L 23.46875 85.347656 L 21.527344 75.277344 L 11.320312 74.273438 L 13.148438 64.183594 L 3.992188 59.558594 L 9.34375 50.808594 L 2.476562 43.191406 L 10.625 36.96875 L 6.976562 27.382812 L 16.824219 24.523438 L 16.878906 14.265625 L 27.097656 15.15625 L 30.855469 5.613281 L 40.0625 10.132812 Z M 47.011719 2.59375 " fill-opacity="1" fill-rule="nonzero"/><g fill="#1f2e46" fill-opacity="1"><g transform="translate(30.010982, 65.386319)"><g><path d="M 4.46875 -1.1875 L 3.78125 -1.1875 L 3.78125 0 L 2.59375 0 L 2.59375 -1.1875 L 0.140625 -1.1875 L 0.140625 -2.03125 L 2.65625 -5.75 L 3.78125 -5.75 L 3.78125 -2.140625 L 4.46875 -2.140625 Z M 2.59375 -2.140625 L 2.59375 -3.109375 C 2.59375 -3.265625 2.597656 -3.5 2.609375 -3.8125 C 2.617188 -4.125 2.628906 -4.304688 2.640625 -4.359375 L 2.609375 -4.359375 C 2.515625 -4.140625 2.398438 -3.925781 2.265625 -3.71875 L 1.203125 -2.140625 Z M 2.59375 -2.140625 "/></g></g><g transform="translate(34.608831, 65.386319)"><g><path d="M 0.453125 -0.5625 C 0.453125 -0.78125 0.507812 -0.945312 0.625 -1.0625 C 0.75 -1.175781 0.925781 -1.234375 1.15625 -1.234375 C 1.375 -1.234375 1.539062 -1.175781 1.65625 -1.0625 C 1.769531 -0.945312 1.828125 -0.78125 1.828125 -0.5625 C 1.828125 -0.351562 1.765625 -0.1875 1.640625 -0.0625 C 1.523438 0.0507812 1.363281 0.109375 1.15625 0.109375 C 0.9375 0.109375 0.765625 0.0507812 0.640625 -0.0625 C 0.515625 -0.1875 0.453125 -0.351562 0.453125 -0.5625 Z M 0.453125 -0.5625 "/></g></g><g transform="translate(36.901865, 65.386319)"><g><path d="M 4.3125 -3.296875 C 4.3125 -2.160156 4.070312 -1.3125 3.59375 -0.75 C 3.125 -0.195312 2.40625 0.078125 1.4375 0.078125 C 1.09375 0.078125 0.832031 0.0625 0.65625 0.03125 L 0.65625 -0.953125 C 0.875 -0.898438 1.109375 -0.875 1.359375 -0.875 C 1.753906 -0.875 2.082031 -0.929688 2.34375 -1.046875 C 2.613281 -1.160156 2.816406 -1.34375 2.953125 -1.59375 C 3.085938 -1.851562 3.164062 -2.207031 3.1875 -2.65625 L 3.140625 -2.65625 C 2.992188 -2.414062 2.820312 -2.242188 2.625 -2.140625 C 2.425781 -2.046875 2.175781 -2 1.875 -2 C 1.375 -2 0.976562 -2.15625 0.6875 -2.46875 C 0.40625 -2.789062 0.265625 -3.238281 0.265625 -3.8125 C 0.265625 -4.425781 0.4375 -4.910156 0.78125 -5.265625 C 1.132812 -5.628906 1.613281 -5.8125 2.21875 -5.8125 C 2.632812 -5.8125 3 -5.710938 3.3125 -5.515625 C 3.632812 -5.316406 3.878906 -5.023438 4.046875 -4.640625 C 4.222656 -4.265625 4.3125 -3.816406 4.3125 -3.296875 Z M 2.234375 -4.84375 C 1.984375 -4.84375 1.785156 -4.753906 1.640625 -4.578125 C 1.503906 -4.398438 1.4375 -4.148438 1.4375 -3.828125 C 1.4375 -3.554688 1.5 -3.335938 1.625 -3.171875 C 1.75 -3.003906 1.945312 -2.921875 2.21875 -2.921875 C 2.457031 -2.921875 2.664062 -3 2.84375 -3.15625 C 3.019531 -3.320312 3.109375 -3.507812 3.109375 -3.71875 C 3.109375 -4.03125 3.023438 -4.296875 2.859375 -4.515625 C 2.691406 -4.734375 2.484375 -4.84375 2.234375 -4.84375 Z M 2.234375 -4.84375 "/></g></g><g transform="translate(41.499714, 65.386319)"><g/></g><g transform="translate(43.588575, 65.386319)"><g><path d="M 4.109375 -1.59375 C 4.109375 -1.070312 3.921875 -0.660156 3.546875 -0.359375 C 3.179688 -0.0664062 2.664062 0.078125 2 0.078125 C 1.382812 0.078125 0.84375 -0.0351562 0.375 -0.265625 L 0.375 -1.40625 C 0.757812 -1.226562 1.082031 -1.101562 1.34375 -1.03125 C 1.613281 -0.957031 1.863281 -0.921875 2.09375 -0.921875 C 2.351562 -0.921875 2.554688 -0.972656 2.703125 -1.078125 C 2.847656 -1.179688 2.921875 -1.332031 2.921875 -1.53125 C 2.921875 -1.644531 2.890625 -1.742188 2.828125 -1.828125 C 2.765625 -1.921875 2.671875 -2.007812 2.546875 -2.09375 C 2.421875 -2.175781 2.171875 -2.304688 1.796875 -2.484375 C 1.453125 -2.648438 1.191406 -2.804688 1.015625 -2.953125 C 0.835938 -3.109375 0.695312 -3.285156 0.59375 -3.484375 C 0.488281 -3.679688 0.4375 -3.914062 0.4375 -4.1875 C 0.4375 -4.695312 0.609375 -5.097656 0.953125 -5.390625 C 1.296875 -5.679688 1.769531 -5.828125 2.375 -5.828125 C 2.675781 -5.828125 2.960938 -5.789062 3.234375 -5.71875 C 3.503906 -5.644531 3.789062 -5.546875 4.09375 -5.421875 L 3.6875 -4.46875 C 3.382812 -4.59375 3.128906 -4.679688 2.921875 -4.734375 C 2.722656 -4.785156 2.53125 -4.8125 2.34375 -4.8125 C 2.113281 -4.8125 1.9375 -4.753906 1.8125 -4.640625 C 1.6875 -4.535156 1.625 -4.398438 1.625 -4.234375 C 1.625 -4.128906 1.648438 -4.035156 1.703125 -3.953125 C 1.753906 -3.867188 1.832031 -3.789062 1.9375 -3.71875 C 2.050781 -3.644531 2.3125 -3.507812 2.71875 -3.3125 C 3.25 -3.0625 3.613281 -2.804688 3.8125 -2.546875 C 4.007812 -2.285156 4.109375 -1.96875 4.109375 -1.59375 Z M 4.109375 -1.59375 "/></g></g><g transform="translate(48.017587, 65.386319)"><g><path d="M 2.484375 -0.875 C 2.691406 -0.875 2.941406 -0.921875 3.234375 -1.015625 L 3.234375 -0.125 C 2.929688 0.0078125 2.566406 0.078125 2.140625 0.078125 C 1.660156 0.078125 1.3125 -0.0390625 1.09375 -0.28125 C 0.875 -0.519531 0.765625 -0.882812 0.765625 -1.375 L 0.765625 -3.5 L 0.1875 -3.5 L 0.1875 -4 L 0.84375 -4.40625 L 1.1875 -5.328125 L 1.953125 -5.328125 L 1.953125 -4.390625 L 3.1875 -4.390625 L 3.1875 -3.5 L 1.953125 -3.5 L 1.953125 -1.375 C 1.953125 -1.207031 2 -1.082031 2.09375 -1 C 2.195312 -0.914062 2.328125 -0.875 2.484375 -0.875 Z M 2.484375 -0.875 "/></g></g><g transform="translate(51.508183, 65.386319)"><g><path d="M 3.421875 0 L 3.1875 -0.59375 L 3.15625 -0.59375 C 2.957031 -0.34375 2.75 -0.164062 2.53125 -0.0625 C 2.320312 0.03125 2.046875 0.078125 1.703125 0.078125 C 1.273438 0.078125 0.941406 -0.0390625 0.703125 -0.28125 C 0.460938 -0.519531 0.34375 -0.863281 0.34375 -1.3125 C 0.34375 -1.78125 0.503906 -2.125 0.828125 -2.34375 C 1.148438 -2.5625 1.640625 -2.6875 2.296875 -2.71875 L 3.0625 -2.734375 L 3.0625 -2.921875 C 3.0625 -3.367188 2.832031 -3.59375 2.375 -3.59375 C 2.03125 -3.59375 1.617188 -3.488281 1.140625 -3.28125 L 0.75 -4.09375 C 1.25 -4.351562 1.804688 -4.484375 2.421875 -4.484375 C 3.015625 -4.484375 3.46875 -4.351562 3.78125 -4.09375 C 4.09375 -3.84375 4.25 -3.453125 4.25 -2.921875 L 4.25 0 Z M 3.0625 -2.03125 L 2.59375 -2.015625 C 2.25 -2.003906 1.988281 -1.941406 1.8125 -1.828125 C 1.644531 -1.710938 1.5625 -1.535156 1.5625 -1.296875 C 1.5625 -0.960938 1.757812 -0.796875 2.15625 -0.796875 C 2.425781 -0.796875 2.644531 -0.875 2.8125 -1.03125 C 2.976562 -1.195312 3.0625 -1.410156 3.0625 -1.671875 Z M 3.0625 -2.03125 "/></g></g><g transform="translate(56.365176, 65.386319)"><g><path d="M 3.078125 -4.46875 C 3.242188 -4.46875 3.378906 -4.457031 3.484375 -4.4375 L 3.390625 -3.3125 C 3.296875 -3.34375 3.179688 -3.359375 3.046875 -3.359375 C 2.660156 -3.359375 2.359375 -3.257812 2.140625 -3.0625 C 1.929688 -2.863281 1.828125 -2.585938 1.828125 -2.234375 L 1.828125 0 L 0.625 0 L 0.625 -4.390625 L 1.53125 -4.390625 L 1.71875 -3.65625 L 1.765625 -3.65625 C 1.898438 -3.90625 2.082031 -4.101562 2.3125 -4.25 C 2.550781 -4.394531 2.804688 -4.46875 3.078125 -4.46875 Z M 3.078125 -4.46875 "/></g></g><g transform="translate(60.016755, 65.386319)"><g><path d="M 3.6875 -1.296875 C 3.6875 -0.847656 3.53125 -0.503906 3.21875 -0.265625 C 2.90625 -0.0351562 2.4375 0.078125 1.8125 0.078125 C 1.5 0.078125 1.226562 0.0546875 1 0.015625 C 0.769531 -0.0234375 0.5625 -0.0859375 0.375 -0.171875 L 0.375 -1.171875 C 0.59375 -1.066406 0.84375 -0.976562 1.125 -0.90625 C 1.40625 -0.832031 1.648438 -0.796875 1.859375 -0.796875 C 2.296875 -0.796875 2.515625 -0.921875 2.515625 -1.171875 C 2.515625 -1.265625 2.484375 -1.34375 2.421875 -1.40625 C 2.367188 -1.46875 2.269531 -1.535156 2.125 -1.609375 C 1.976562 -1.679688 1.789062 -1.765625 1.5625 -1.859375 C 1.21875 -2.003906 0.96875 -2.132812 0.8125 -2.25 C 0.65625 -2.375 0.539062 -2.515625 0.46875 -2.671875 C 0.394531 -2.828125 0.359375 -3.019531 0.359375 -3.25 C 0.359375 -3.632812 0.507812 -3.929688 0.8125 -4.140625 C 1.113281 -4.359375 1.546875 -4.46875 2.109375 -4.46875 C 2.628906 -4.46875 3.140625 -4.351562 3.640625 -4.125 L 3.28125 -3.265625 C 3.0625 -3.359375 2.851562 -3.4375 2.65625 -3.5 C 2.46875 -3.5625 2.273438 -3.59375 2.078125 -3.59375 C 1.722656 -3.59375 1.546875 -3.492188 1.546875 -3.296875 C 1.546875 -3.191406 1.601562 -3.097656 1.71875 -3.015625 C 1.832031 -2.941406 2.082031 -2.828125 2.46875 -2.671875 C 2.8125 -2.535156 3.0625 -2.40625 3.21875 -2.28125 C 3.382812 -2.164062 3.503906 -2.023438 3.578125 -1.859375 C 3.648438 -1.703125 3.6875 -1.515625 3.6875 -1.296875 Z M 3.6875 -1.296875 "/></g></g></g><g fill="#1f2e46" fill-opacity="1"><g transform="translate(23.628571, 72.548126)"><g><path d="M 2.265625 0 L 1.640625 0 L 1.640625 -4.46875 L 0.0625 -4.46875 L 0.0625 -5.015625 L 3.828125 -5.015625 L 3.828125 -4.46875 L 2.265625 -4.46875 Z M 2.265625 0 "/></g></g><g transform="translate(27.541748, 72.548126)"><g><path d="M 3.171875 0 L 3.171875 -2.40625 C 3.171875 -2.71875 3.097656 -2.945312 2.953125 -3.09375 C 2.816406 -3.238281 2.609375 -3.3125 2.328125 -3.3125 C 1.941406 -3.3125 1.660156 -3.207031 1.484375 -3 C 1.304688 -2.789062 1.21875 -2.441406 1.21875 -1.953125 L 1.21875 0 L 0.59375 0 L 0.59375 -5.34375 L 1.21875 -5.34375 L 1.21875 -3.78125 C 1.21875 -3.570312 1.207031 -3.394531 1.1875 -3.25 L 1.21875 -3.25 C 1.332031 -3.425781 1.492188 -3.566406 1.703125 -3.671875 C 1.910156 -3.773438 2.140625 -3.828125 2.390625 -3.828125 C 2.847656 -3.828125 3.191406 -3.71875 3.421875 -3.5 C 3.660156 -3.28125 3.78125 -2.929688 3.78125 -2.453125 L 3.78125 0 Z M 3.171875 0 "/></g></g><g transform="translate(31.891251, 72.548126)"><g><path d="M 2.203125 0.0625 C 1.640625 0.0625 1.195312 -0.101562 0.875 -0.4375 C 0.550781 -0.78125 0.390625 -1.253906 0.390625 -1.859375 C 0.390625 -2.460938 0.535156 -2.941406 0.828125 -3.296875 C 1.128906 -3.660156 1.535156 -3.84375 2.046875 -3.84375 C 2.523438 -3.84375 2.90625 -3.6875 3.1875 -3.375 C 3.46875 -3.070312 3.609375 -2.660156 3.609375 -2.140625 L 3.609375 -1.765625 L 1.03125 -1.765625 C 1.039062 -1.335938 1.144531 -1.007812 1.34375 -0.78125 C 1.550781 -0.5625 1.847656 -0.453125 2.234375 -0.453125 C 2.429688 -0.453125 2.617188 -0.46875 2.796875 -0.5 C 2.984375 -0.539062 3.195312 -0.613281 3.4375 -0.71875 L 3.4375 -0.171875 C 3.226562 -0.0859375 3.03125 -0.03125 2.84375 0 C 2.664062 0.0390625 2.453125 0.0625 2.203125 0.0625 Z M 2.046875 -3.328125 C 1.753906 -3.328125 1.519531 -3.234375 1.34375 -3.046875 C 1.175781 -2.859375 1.078125 -2.59375 1.046875 -2.25 L 2.953125 -2.25 C 2.953125 -2.601562 2.875 -2.867188 2.71875 -3.046875 C 2.5625 -3.234375 2.335938 -3.328125 2.046875 -3.328125 Z M 2.046875 -3.328125 "/></g></g><g transform="translate(35.859398, 72.548126)"><g/></g><g transform="translate(37.687151, 72.548126)"><g><path d="M 3.171875 0 L 3.171875 -2.40625 C 3.171875 -2.71875 3.097656 -2.945312 2.953125 -3.09375 C 2.816406 -3.238281 2.609375 -3.3125 2.328125 -3.3125 C 1.941406 -3.3125 1.660156 -3.207031 1.484375 -3 C 1.304688 -2.789062 1.21875 -2.441406 1.21875 -1.953125 L 1.21875 0 L 0.59375 0 L 0.59375 -5.34375 L 1.21875 -5.34375 L 1.21875 -3.78125 C 1.21875 -3.570312 1.207031 -3.394531 1.1875 -3.25 L 1.21875 -3.25 C 1.332031 -3.425781 1.492188 -3.566406 1.703125 -3.671875 C 1.910156 -3.773438 2.140625 -3.828125 2.390625 -3.828125 C 2.847656 -3.828125 3.191406 -3.71875 3.421875 -3.5 C 3.660156 -3.28125 3.78125 -2.929688 3.78125 -2.453125 L 3.78125 0 Z M 3.171875 0 "/></g></g><g transform="translate(42.036653, 72.548126)"><g><path d="M 1.21875 0 L 0.59375 0 L 0.59375 -3.765625 L 1.21875 -3.765625 Z M 0.546875 -4.796875 C 0.546875 -4.929688 0.582031 -5.03125 0.65625 -5.09375 C 0.726562 -5.15625 0.8125 -5.1875 0.90625 -5.1875 C 1.007812 -5.1875 1.097656 -5.15625 1.171875 -5.09375 C 1.242188 -5.03125 1.28125 -4.929688 1.28125 -4.796875 C 1.28125 -4.660156 1.242188 -4.554688 1.171875 -4.484375 C 1.097656 -4.421875 1.007812 -4.390625 0.90625 -4.390625 C 0.8125 -4.390625 0.726562 -4.421875 0.65625 -4.484375 C 0.582031 -4.554688 0.546875 -4.660156 0.546875 -4.796875 Z M 0.546875 -4.796875 "/></g></g><g transform="translate(43.850664, 72.548126)"><g><path d="M 2.03125 -0.4375 C 2.414062 -0.4375 2.691406 -0.535156 2.859375 -0.734375 C 3.035156 -0.941406 3.125 -1.273438 3.125 -1.734375 L 3.125 -1.875 C 3.125 -2.382812 3.035156 -2.75 2.859375 -2.96875 C 2.679688 -3.195312 2.398438 -3.3125 2.015625 -3.3125 C 1.703125 -3.3125 1.457031 -3.1875 1.28125 -2.9375 C 1.113281 -2.6875 1.03125 -2.332031 1.03125 -1.875 C 1.03125 -1.40625 1.113281 -1.046875 1.28125 -0.796875 C 1.445312 -0.554688 1.695312 -0.4375 2.03125 -0.4375 Z M 3.109375 -0.03125 L 3.140625 -0.5 L 3.109375 -0.5 C 2.847656 -0.125 2.457031 0.0625 1.9375 0.0625 C 1.445312 0.0625 1.066406 -0.101562 0.796875 -0.4375 C 0.523438 -0.78125 0.390625 -1.257812 0.390625 -1.875 C 0.390625 -2.476562 0.523438 -2.957031 0.796875 -3.3125 C 1.078125 -3.664062 1.457031 -3.84375 1.9375 -3.84375 C 2.445312 -3.84375 2.835938 -3.648438 3.109375 -3.265625 L 3.15625 -3.265625 L 3.234375 -3.765625 L 3.71875 -3.765625 L 3.71875 0.0625 C 3.71875 0.601562 3.582031 1.007812 3.3125 1.28125 C 3.039062 1.550781 2.617188 1.6875 2.046875 1.6875 C 1.492188 1.6875 1.039062 1.609375 0.6875 1.453125 L 0.6875 0.875 C 1.050781 1.070312 1.515625 1.171875 2.078125 1.171875 C 2.390625 1.171875 2.640625 1.078125 2.828125 0.890625 C 3.015625 0.703125 3.109375 0.441406 3.109375 0.109375 Z M 3.109375 -0.03125 "/></g></g><g transform="translate(48.179552, 72.548126)"><g><path d="M 3.171875 0 L 3.171875 -2.40625 C 3.171875 -2.71875 3.097656 -2.945312 2.953125 -3.09375 C 2.816406 -3.238281 2.609375 -3.3125 2.328125 -3.3125 C 1.941406 -3.3125 1.660156 -3.207031 1.484375 -3 C 1.304688 -2.789062 1.21875 -2.441406 1.21875 -1.953125 L 1.21875 0 L 0.59375 0 L 0.59375 -5.34375 L 1.21875 -5.34375 L 1.21875 -3.78125 C 1.21875 -3.570312 1.207031 -3.394531 1.1875 -3.25 L 1.21875 -3.25 C 1.332031 -3.425781 1.492188 -3.566406 1.703125 -3.671875 C 1.910156 -3.773438 2.140625 -3.828125 2.390625 -3.828125 C 2.847656 -3.828125 3.191406 -3.71875 3.421875 -3.5 C 3.660156 -3.28125 3.78125 -2.929688 3.78125 -2.453125 L 3.78125 0 Z M 3.171875 0 "/></g></g><g transform="translate(52.529054, 72.548126)"><g><path d="M 2.203125 0.0625 C 1.640625 0.0625 1.195312 -0.101562 0.875 -0.4375 C 0.550781 -0.78125 0.390625 -1.253906 0.390625 -1.859375 C 0.390625 -2.460938 0.535156 -2.941406 0.828125 -3.296875 C 1.128906 -3.660156 1.535156 -3.84375 2.046875 -3.84375 C 2.523438 -3.84375 2.90625 -3.6875 3.1875 -3.375 C 3.46875 -3.070312 3.609375 -2.660156 3.609375 -2.140625 L 3.609375 -1.765625 L 1.03125 -1.765625 C 1.039062 -1.335938 1.144531 -1.007812 1.34375 -0.78125 C 1.550781 -0.5625 1.847656 -0.453125 2.234375 -0.453125 C 2.429688 -0.453125 2.617188 -0.46875 2.796875 -0.5 C 2.984375 -0.539062 3.195312 -0.613281 3.4375 -0.71875 L 3.4375 -0.171875 C 3.226562 -0.0859375 3.03125 -0.03125 2.84375 0 C 2.664062 0.0390625 2.453125 0.0625 2.203125 0.0625 Z M 2.046875 -3.328125 C 1.753906 -3.328125 1.519531 -3.234375 1.34375 -3.046875 C 1.175781 -2.859375 1.078125 -2.59375 1.046875 -2.25 L 2.953125 -2.25 C 2.953125 -2.601562 2.875 -2.867188 2.71875 -3.046875 C 2.5625 -3.234375 2.335938 -3.328125 2.046875 -3.328125 Z M 2.046875 -3.328125 "/></g></g><g transform="translate(56.497202, 72.548126)"><g><path d="M 3.046875 -1.046875 C 3.046875 -0.691406 2.914062 -0.414062 2.65625 -0.21875 C 2.394531 -0.03125 2.023438 0.0625 1.546875 0.0625 C 1.046875 0.0625 0.648438 -0.015625 0.359375 -0.171875 L 0.359375 -0.734375 C 0.773438 -0.523438 1.175781 -0.421875 1.5625 -0.421875 C 1.875 -0.421875 2.097656 -0.472656 2.234375 -0.578125 C 2.378906 -0.679688 2.453125 -0.816406 2.453125 -0.984375 C 2.453125 -1.128906 2.382812 -1.253906 2.25 -1.359375 C 2.113281 -1.460938 1.875 -1.582031 1.53125 -1.71875 C 1.175781 -1.851562 0.925781 -1.96875 0.78125 -2.0625 C 0.632812 -2.164062 0.523438 -2.273438 0.453125 -2.390625 C 0.390625 -2.515625 0.359375 -2.664062 0.359375 -2.84375 C 0.359375 -3.144531 0.484375 -3.382812 0.734375 -3.5625 C 0.984375 -3.75 1.328125 -3.84375 1.765625 -3.84375 C 2.191406 -3.84375 2.59375 -3.753906 2.96875 -3.578125 L 2.765625 -3.09375 C 2.378906 -3.25 2.035156 -3.328125 1.734375 -3.328125 C 1.472656 -3.328125 1.273438 -3.285156 1.140625 -3.203125 C 1.015625 -3.128906 0.953125 -3.019531 0.953125 -2.875 C 0.953125 -2.738281 1.007812 -2.625 1.125 -2.53125 C 1.238281 -2.445312 1.503906 -2.320312 1.921875 -2.15625 C 2.234375 -2.039062 2.460938 -1.929688 2.609375 -1.828125 C 2.765625 -1.734375 2.875 -1.617188 2.9375 -1.484375 C 3.007812 -1.359375 3.046875 -1.210938 3.046875 -1.046875 Z M 3.046875 -1.046875 "/></g></g><g transform="translate(59.867551, 72.548126)"><g><path d="M 1.859375 -0.4375 C 1.941406 -0.4375 2.035156 -0.441406 2.140625 -0.453125 C 2.242188 -0.472656 2.320312 -0.492188 2.375 -0.515625 L 2.375 -0.046875 C 2.320312 -0.015625 2.234375 0.0078125 2.109375 0.03125 C 1.992188 0.0507812 1.875 0.0625 1.75 0.0625 C 1.007812 0.0625 0.640625 -0.320312 0.640625 -1.09375 L 0.640625 -3.28125 L 0.109375 -3.28125 L 0.109375 -3.578125 L 0.65625 -3.828125 L 0.90625 -4.640625 L 1.265625 -4.640625 L 1.265625 -3.765625 L 2.359375 -3.765625 L 2.359375 -3.28125 L 1.265625 -3.28125 L 1.265625 -1.109375 C 1.265625 -0.890625 1.316406 -0.722656 1.421875 -0.609375 C 1.523438 -0.492188 1.671875 -0.4375 1.859375 -0.4375 Z M 1.859375 -0.4375 "/></g></g><g transform="translate(62.406478, 72.548126)"><g/></g><g transform="translate(64.234231, 72.548126)"><g><path d="M 1.21875 0 L 0.59375 0 L 0.59375 -3.765625 L 1.21875 -3.765625 Z M 0.546875 -4.796875 C 0.546875 -4.929688 0.582031 -5.03125 0.65625 -5.09375 C 0.726562 -5.15625 0.8125 -5.1875 0.90625 -5.1875 C 1.007812 -5.1875 1.097656 -5.15625 1.171875 -5.09375 C 1.242188 -5.03125 1.28125 -4.929688 1.28125 -4.796875 C 1.28125 -4.660156 1.242188 -4.554688 1.171875 -4.484375 C 1.097656 -4.421875 1.007812 -4.390625 0.90625 -4.390625 C 0.8125 -4.390625 0.726562 -4.421875 0.65625 -4.484375 C 0.582031 -4.554688 0.546875 -4.660156 0.546875 -4.796875 Z M 0.546875 -4.796875 "/></g></g><g transform="translate(66.048242, 72.548126)"><g><path d="M 3.171875 0 L 3.171875 -2.40625 C 3.171875 -2.71875 3.097656 -2.945312 2.953125 -3.09375 C 2.816406 -3.238281 2.609375 -3.3125 2.328125 -3.3125 C 1.929688 -3.3125 1.644531 -3.203125 1.46875 -2.984375 C 1.300781 -2.773438 1.21875 -2.429688 1.21875 -1.953125 L 1.21875 0 L 0.59375 0 L 0.59375 -3.765625 L 1.09375 -3.765625 L 1.1875 -3.25 L 1.21875 -3.25 C 1.332031 -3.4375 1.492188 -3.582031 1.703125 -3.6875 C 1.921875 -3.789062 2.15625 -3.84375 2.40625 -3.84375 C 2.875 -3.84375 3.21875 -3.726562 3.4375 -3.5 C 3.664062 -3.28125 3.78125 -2.929688 3.78125 -2.453125 L 3.78125 0 Z M 3.171875 0 "/></g></g></g><g fill="#1f2e46" fill-opacity="1"><g transform="translate(27.048491, 79.584287)"><g><path d="M 1.859375 -0.4375 C 1.941406 -0.4375 2.035156 -0.441406 2.140625 -0.453125 C 2.242188 -0.472656 2.320312 -0.492188 2.375 -0.515625 L 2.375 -0.046875 C 2.320312 -0.015625 2.234375 0.0078125 2.109375 0.03125 C 1.992188 0.0507812 1.875 0.0625 1.75 0.0625 C 1.007812 0.0625 0.640625 -0.320312 0.640625 -1.09375 L 0.640625 -3.28125 L 0.109375 -3.28125 L 0.109375 -3.578125 L 0.65625 -3.828125 L 0.90625 -4.640625 L 1.265625 -4.640625 L 1.265625 -3.765625 L 2.359375 -3.765625 L 2.359375 -3.28125 L 1.265625 -3.28125 L 1.265625 -1.109375 C 1.265625 -0.890625 1.316406 -0.722656 1.421875 -0.609375 C 1.523438 -0.492188 1.671875 -0.4375 1.859375 -0.4375 Z M 1.859375 -0.4375 "/></g></g><g transform="translate(29.587418, 79.584287)"><g><path d="M 3.171875 0 L 3.171875 -2.40625 C 3.171875 -2.71875 3.097656 -2.945312 2.953125 -3.09375 C 2.816406 -3.238281 2.609375 -3.3125 2.328125 -3.3125 C 1.941406 -3.3125 1.660156 -3.207031 1.484375 -3 C 1.304688 -2.789062 1.21875 -2.441406 1.21875 -1.953125 L 1.21875 0 L 0.59375 0 L 0.59375 -5.34375 L 1.21875 -5.34375 L 1.21875 -3.78125 C 1.21875 -3.570312 1.207031 -3.394531 1.1875 -3.25 L 1.21875 -3.25 C 1.332031 -3.425781 1.492188 -3.566406 1.703125 -3.671875 C 1.910156 -3.773438 2.140625 -3.828125 2.390625 -3.828125 C 2.847656 -3.828125 3.191406 -3.71875 3.421875 -3.5 C 3.660156 -3.28125 3.78125 -2.929688 3.78125 -2.453125 L 3.78125 0 Z M 3.171875 0 "/></g></g><g transform="translate(33.93692, 79.584287)"><g><path d="M 2.203125 0.0625 C 1.640625 0.0625 1.195312 -0.101562 0.875 -0.4375 C 0.550781 -0.78125 0.390625 -1.253906 0.390625 -1.859375 C 0.390625 -2.460938 0.535156 -2.941406 0.828125 -3.296875 C 1.128906 -3.660156 1.535156 -3.84375 2.046875 -3.84375 C 2.523438 -3.84375 2.90625 -3.6875 3.1875 -3.375 C 3.46875 -3.070312 3.609375 -2.660156 3.609375 -2.140625 L 3.609375 -1.765625 L 1.03125 -1.765625 C 1.039062 -1.335938 1.144531 -1.007812 1.34375 -0.78125 C 1.550781 -0.5625 1.847656 -0.453125 2.234375 -0.453125 C 2.429688 -0.453125 2.617188 -0.46875 2.796875 -0.5 C 2.984375 -0.539062 3.195312 -0.613281 3.4375 -0.71875 L 3.4375 -0.171875 C 3.226562 -0.0859375 3.03125 -0.03125 2.84375 0 C 2.664062 0.0390625 2.453125 0.0625 2.203125 0.0625 Z M 2.046875 -3.328125 C 1.753906 -3.328125 1.519531 -3.234375 1.34375 -3.046875 C 1.175781 -2.859375 1.078125 -2.59375 1.046875 -2.25 L 2.953125 -2.25 C 2.953125 -2.601562 2.875 -2.867188 2.71875 -3.046875 C 2.5625 -3.234375 2.335938 -3.328125 2.046875 -3.328125 Z M 2.046875 -3.328125 "/></g></g><g transform="translate(37.905068, 79.584287)"><g/></g><g transform="translate(39.732821, 79.584287)"><g><path d="M 1.21875 0 L 0.59375 0 L 0.59375 -3.765625 L 1.21875 -3.765625 Z M 0.546875 -4.796875 C 0.546875 -4.929688 0.582031 -5.03125 0.65625 -5.09375 C 0.726562 -5.15625 0.8125 -5.1875 0.90625 -5.1875 C 1.007812 -5.1875 1.097656 -5.15625 1.171875 -5.09375 C 1.242188 -5.03125 1.28125 -4.929688 1.28125 -4.796875 C 1.28125 -4.660156 1.242188 -4.554688 1.171875 -4.484375 C 1.097656 -4.421875 1.007812 -4.390625 0.90625 -4.390625 C 0.8125 -4.390625 0.726562 -4.421875 0.65625 -4.484375 C 0.582031 -4.554688 0.546875 -4.660156 0.546875 -4.796875 Z M 0.546875 -4.796875 "/></g></g><g transform="translate(41.546831, 79.584287)"><g><path d="M 3.171875 0 L 3.171875 -2.40625 C 3.171875 -2.71875 3.097656 -2.945312 2.953125 -3.09375 C 2.816406 -3.238281 2.609375 -3.3125 2.328125 -3.3125 C 1.929688 -3.3125 1.644531 -3.203125 1.46875 -2.984375 C 1.300781 -2.773438 1.21875 -2.429688 1.21875 -1.953125 L 1.21875 0 L 0.59375 0 L 0.59375 -3.765625 L 1.09375 -3.765625 L 1.1875 -3.25 L 1.21875 -3.25 C 1.332031 -3.4375 1.492188 -3.582031 1.703125 -3.6875 C 1.921875 -3.789062 2.15625 -3.84375 2.40625 -3.84375 C 2.875 -3.84375 3.21875 -3.726562 3.4375 -3.5 C 3.664062 -3.28125 3.78125 -2.929688 3.78125 -2.453125 L 3.78125 0 Z M 3.171875 0 "/></g></g><g transform="translate(45.896334, 79.584287)"><g><path d="M 1.9375 0.0625 C 1.445312 0.0625 1.066406 -0.101562 0.796875 -0.4375 C 0.523438 -0.78125 0.390625 -1.257812 0.390625 -1.875 C 0.390625 -2.488281 0.523438 -2.96875 0.796875 -3.3125 C 1.066406 -3.664062 1.445312 -3.84375 1.9375 -3.84375 C 2.445312 -3.84375 2.835938 -3.65625 3.109375 -3.28125 L 3.15625 -3.28125 C 3.144531 -3.320312 3.132812 -3.410156 3.125 -3.546875 C 3.113281 -3.691406 3.109375 -3.789062 3.109375 -3.84375 L 3.109375 -5.34375 L 3.71875 -5.34375 L 3.71875 0 L 3.234375 0 L 3.140625 -0.5 L 3.109375 -0.5 C 2.847656 -0.125 2.457031 0.0625 1.9375 0.0625 Z M 2.03125 -0.4375 C 2.40625 -0.4375 2.675781 -0.539062 2.84375 -0.75 C 3.019531 -0.957031 3.109375 -1.296875 3.109375 -1.765625 L 3.109375 -1.875 C 3.109375 -2.394531 3.019531 -2.765625 2.84375 -2.984375 C 2.675781 -3.210938 2.40625 -3.328125 2.03125 -3.328125 C 1.707031 -3.328125 1.457031 -3.195312 1.28125 -2.9375 C 1.113281 -2.6875 1.03125 -2.328125 1.03125 -1.859375 C 1.03125 -1.390625 1.113281 -1.035156 1.28125 -0.796875 C 1.457031 -0.554688 1.707031 -0.4375 2.03125 -0.4375 Z M 2.03125 -0.4375 "/></g></g><g transform="translate(50.225222, 79.584287)"><g><path d="M 1.1875 -3.765625 L 1.1875 -1.34375 C 1.1875 -1.039062 1.253906 -0.8125 1.390625 -0.65625 C 1.523438 -0.507812 1.734375 -0.4375 2.015625 -0.4375 C 2.398438 -0.4375 2.679688 -0.546875 2.859375 -0.765625 C 3.035156 -0.984375 3.125 -1.332031 3.125 -1.8125 L 3.125 -3.765625 L 3.75 -3.765625 L 3.75 0 L 3.234375 0 L 3.15625 -0.5 L 3.125 -0.5 C 3.007812 -0.320312 2.847656 -0.179688 2.640625 -0.078125 C 2.429688 0.015625 2.191406 0.0625 1.921875 0.0625 C 1.472656 0.0625 1.132812 -0.0390625 0.90625 -0.25 C 0.675781 -0.46875 0.5625 -0.816406 0.5625 -1.296875 L 0.5625 -3.765625 Z M 1.1875 -3.765625 "/></g></g><g transform="translate(54.574724, 79.584287)"><g><path d="M 3.046875 -1.046875 C 3.046875 -0.691406 2.914062 -0.414062 2.65625 -0.21875 C 2.394531 -0.03125 2.023438 0.0625 1.546875 0.0625 C 1.046875 0.0625 0.648438 -0.015625 0.359375 -0.171875 L 0.359375 -0.734375 C 0.773438 -0.523438 1.175781 -0.421875 1.5625 -0.421875 C 1.875 -0.421875 2.097656 -0.472656 2.234375 -0.578125 C 2.378906 -0.679688 2.453125 -0.816406 2.453125 -0.984375 C 2.453125 -1.128906 2.382812 -1.253906 2.25 -1.359375 C 2.113281 -1.460938 1.875 -1.582031 1.53125 -1.71875 C 1.175781 -1.851562 0.925781 -1.96875 0.78125 -2.0625 C 0.632812 -2.164062 0.523438 -2.273438 0.453125 -2.390625 C 0.390625 -2.515625 0.359375 -2.664062 0.359375 -2.84375 C 0.359375 -3.144531 0.484375 -3.382812 0.734375 -3.5625 C 0.984375 -3.75 1.328125 -3.84375 1.765625 -3.84375 C 2.191406 -3.84375 2.59375 -3.753906 2.96875 -3.578125 L 2.765625 -3.09375 C 2.378906 -3.25 2.035156 -3.328125 1.734375 -3.328125 C 1.472656 -3.328125 1.273438 -3.285156 1.140625 -3.203125 C 1.015625 -3.128906 0.953125 -3.019531 0.953125 -2.875 C 0.953125 -2.738281 1.007812 -2.625 1.125 -2.53125 C 1.238281 -2.445312 1.503906 -2.320312 1.921875 -2.15625 C 2.234375 -2.039062 2.460938 -1.929688 2.609375 -1.828125 C 2.765625 -1.734375 2.875 -1.617188 2.9375 -1.484375 C 3.007812 -1.359375 3.046875 -1.210938 3.046875 -1.046875 Z M 3.046875 -1.046875 "/></g></g><g transform="translate(57.945073, 79.584287)"><g><path d="M 1.859375 -0.4375 C 1.941406 -0.4375 2.035156 -0.441406 2.140625 -0.453125 C 2.242188 -0.472656 2.320312 -0.492188 2.375 -0.515625 L 2.375 -0.046875 C 2.320312 -0.015625 2.234375 0.0078125 2.109375 0.03125 C 1.992188 0.0507812 1.875 0.0625 1.75 0.0625 C 1.007812 0.0625 0.640625 -0.320312 0.640625 -1.09375 L 0.640625 -3.28125 L 0.109375 -3.28125 L 0.109375 -3.578125 L 0.65625 -3.828125 L 0.90625 -4.640625 L 1.265625 -4.640625 L 1.265625 -3.765625 L 2.359375 -3.765625 L 2.359375 -3.28125 L 1.265625 -3.28125 L 1.265625 -1.109375 C 1.265625 -0.890625 1.316406 -0.722656 1.421875 -0.609375 C 1.523438 -0.492188 1.671875 -0.4375 1.859375 -0.4375 Z M 1.859375 -0.4375 "/></g></g><g transform="translate(60.484, 79.584287)"><g><path d="M 2.359375 -3.84375 C 2.523438 -3.84375 2.671875 -3.828125 2.796875 -3.796875 L 2.71875 -3.234375 C 2.582031 -3.265625 2.445312 -3.28125 2.3125 -3.28125 C 2.113281 -3.28125 1.925781 -3.222656 1.75 -3.109375 C 1.582031 -3.003906 1.453125 -2.851562 1.359375 -2.65625 C 1.265625 -2.457031 1.21875 -2.242188 1.21875 -2.015625 L 1.21875 0 L 0.59375 0 L 0.59375 -3.765625 L 1.109375 -3.765625 L 1.171875 -3.078125 L 1.203125 -3.078125 C 1.347656 -3.328125 1.519531 -3.515625 1.71875 -3.640625 C 1.914062 -3.773438 2.128906 -3.84375 2.359375 -3.84375 Z M 2.359375 -3.84375 "/></g></g><g transform="translate(63.39054, 79.584287)"><g><path d="M 0 -3.765625 L 0.671875 -3.765625 L 1.484375 -1.625 C 1.648438 -1.15625 1.753906 -0.8125 1.796875 -0.59375 L 1.828125 -0.59375 C 1.847656 -0.675781 1.894531 -0.832031 1.96875 -1.0625 C 2.039062 -1.300781 2.101562 -1.488281 2.15625 -1.625 L 2.921875 -3.765625 L 3.578125 -3.765625 L 1.953125 0.515625 C 1.796875 0.929688 1.609375 1.226562 1.390625 1.40625 C 1.179688 1.59375 0.914062 1.6875 0.59375 1.6875 C 0.414062 1.6875 0.242188 1.664062 0.078125 1.625 L 0.078125 1.140625 C 0.191406 1.171875 0.328125 1.1875 0.484375 1.1875 C 0.679688 1.1875 0.847656 1.128906 0.984375 1.015625 C 1.128906 0.910156 1.242188 0.742188 1.328125 0.515625 L 1.53125 0.015625 Z M 0 -3.765625 "/></g></g></g><g clip-path="url(#1210a52fdc)"><path fill="#4285f4" d="M 24.457031 27.347656 L 24.457031 29.363281 L 29.3125 29.363281 C 29.183594 30.480469 28.796875 31.339844 28.195312 31.898438 C 27.507812 32.585938 26.390625 33.355469 24.457031 33.355469 C 21.488281 33.355469 19.167969 30.953125 19.167969 27.992188 C 19.167969 25.03125 21.445312 22.625 24.457031 22.625 C 26.046875 22.625 27.25 23.269531 28.109375 24.085938 L 29.527344 22.667969 C 28.324219 21.511719 26.691406 20.609375 24.457031 20.609375 C 20.371094 20.609375 16.933594 23.914062 16.933594 27.992188 C 16.933594 32.070312 20.371094 35.375 24.457031 35.375 C 26.648438 35.375 28.324219 34.644531 29.613281 33.3125 C 30.949219 31.984375 31.378906 30.09375 31.378906 28.59375 C 31.378906 28.121094 31.335938 27.691406 31.292969 27.347656 Z M 24.457031 27.347656 " fill-opacity="1" fill-rule="nonzero"/></g><path fill="#ea4335" d="M 37.398438 25.671875 C 34.773438 25.671875 32.582031 27.691406 32.582031 30.4375 C 32.582031 33.183594 34.730469 35.203125 37.398438 35.203125 C 40.0625 35.203125 42.210938 33.226562 42.210938 30.480469 C 42.210938 27.691406 40.0625 25.671875 37.398438 25.671875 Z M 37.398438 33.355469 C 35.933594 33.355469 34.6875 32.15625 34.6875 30.480469 C 34.6875 28.765625 35.933594 27.605469 37.398438 27.605469 C 38.859375 27.605469 40.105469 28.765625 40.105469 30.480469 C 40.105469 32.15625 38.859375 33.355469 37.398438 33.355469 Z M 37.398438 33.355469 " fill-opacity="1" fill-rule="nonzero"/><g clip-path="url(#b5d6f19fa8)"><path fill="#4285f4" d="M 60.914062 26.746094 L 60.828125 26.746094 C 60.355469 26.1875 59.453125 25.671875 58.292969 25.671875 C 55.886719 25.671875 53.820312 27.734375 53.820312 30.4375 C 53.820312 33.097656 55.886719 35.203125 58.292969 35.203125 C 59.453125 35.203125 60.355469 34.6875 60.828125 34.128906 L 60.914062 34.128906 L 60.914062 34.816406 C 60.914062 36.617188 59.925781 37.605469 58.378906 37.605469 C 57.089844 37.605469 56.316406 36.703125 55.972656 35.890625 L 54.164062 36.660156 C 54.679688 37.90625 56.101562 39.496094 58.421875 39.496094 C 60.871094 39.496094 62.980469 38.035156 62.980469 34.515625 L 62.980469 25.929688 L 61 25.929688 L 61 26.746094 Z M 58.507812 33.355469 C 57.046875 33.355469 55.972656 32.113281 55.972656 30.480469 C 55.972656 28.808594 57.089844 27.605469 58.507812 27.605469 C 59.925781 27.605469 61.042969 28.851562 61.042969 30.523438 C 61.085938 32.15625 59.96875 33.355469 58.507812 33.355469 Z M 58.507812 33.355469 " fill-opacity="1" fill-rule="nonzero"/></g><path fill="#fbbc05" d="M 48.101562 25.671875 C 45.480469 25.671875 43.289062 27.691406 43.289062 30.4375 C 43.289062 33.183594 45.4375 35.203125 48.101562 35.203125 C 50.769531 35.203125 52.917969 33.226562 52.917969 30.480469 C 52.917969 27.691406 50.769531 25.671875 48.101562 25.671875 Z M 48.101562 33.355469 C 46.640625 33.355469 45.394531 32.15625 45.394531 30.480469 C 45.394531 28.765625 46.640625 27.605469 48.101562 27.605469 C 49.566406 27.605469 50.8125 28.765625 50.8125 30.480469 C 50.8125 32.15625 49.566406 33.355469 48.101562 33.355469 Z M 48.101562 33.355469 " fill-opacity="1" fill-rule="nonzero"/><g clip-path="url(#a84ae85596)"><path fill="#34a853" d="M 64.570312 20.824219 L 66.632812 20.824219 L 66.632812 35.246094 L 64.570312 35.246094 Z M 64.570312 20.824219 " fill-opacity="1" fill-rule="nonzero"/></g><g clip-path="url(#04cdbf2ad1)"><path fill="#ea4335" d="M 72.996094 33.355469 C 71.921875 33.355469 71.191406 32.882812 70.675781 31.898438 L 77.082031 29.277344 L 76.867188 28.722656 C 76.480469 27.648438 75.234375 25.671875 72.78125 25.671875 C 70.332031 25.671875 68.269531 27.605469 68.269531 30.4375 C 68.269531 33.097656 70.289062 35.203125 72.996094 35.203125 C 75.191406 35.203125 76.4375 33.871094 76.996094 33.097656 L 75.363281 32.027344 C 74.804688 32.839844 74.070312 33.355469 72.996094 33.355469 Z M 72.867188 27.476562 C 73.726562 27.476562 74.460938 27.90625 74.675781 28.507812 L 70.375 30.308594 C 70.332031 28.335938 71.792969 27.476562 72.867188 27.476562 Z M 72.867188 27.476562 " fill-opacity="1" fill-rule="nonzero"/></g><g clip-path="url(#b3f20c2ec9)"><path fill="#000000" d="M 51.746094 54.578125 C 51.503906 54.578125 51.257812 54.515625 51.042969 54.390625 L 47.179688 52.191406 C 47.128906 52.160156 47.070312 52.144531 47.011719 52.144531 C 46.953125 52.144531 46.894531 52.160156 46.84375 52.191406 L 42.980469 54.390625 C 42.765625 54.515625 42.519531 54.578125 42.277344 54.578125 C 41.855469 54.578125 41.441406 54.378906 41.171875 54.046875 C 40.90625 53.71875 40.800781 53.289062 40.886719 52.867188 L 41.785156 48.515625 C 41.8125 48.394531 41.769531 48.273438 41.683594 48.191406 L 38.394531 45.195312 C 37.976562 44.816406 37.828125 44.242188 38.003906 43.707031 C 38.175781 43.167969 38.636719 42.796875 39.199219 42.730469 L 43.617188 42.242188 C 43.734375 42.230469 43.839844 42.152344 43.890625 42.042969 L 45.722656 37.992188 C 45.957031 37.476562 46.453125 37.15625 47.015625 37.15625 C 47.582031 37.15625 48.078125 37.476562 48.308594 37.992188 L 50.140625 42.042969 C 50.191406 42.152344 50.296875 42.230469 50.417969 42.242188 L 54.835938 42.730469 C 55.398438 42.796875 55.855469 43.167969 56.03125 43.707031 C 56.203125 44.242188 56.054688 44.816406 55.636719 45.195312 L 52.351562 48.191406 C 52.261719 48.273438 52.222656 48.394531 52.246094 48.515625 L 53.144531 52.867188 C 53.230469 53.289062 53.128906 53.71875 52.859375 54.046875 C 52.585938 54.378906 52.167969 54.578125 51.746094 54.578125 Z M 51.746094 54.578125 " fill-opacity="1" fill-rule="nonzero"/></g><g clip-path="url(#82ae8eaec7)"><path fill="#ffe245" d="M 47.816406 38.21875 L 49.648438 42.265625 C 49.773438 42.550781 50.042969 42.746094 50.355469 42.777344 L 54.773438 43.269531 C 55.527344 43.355469 55.828125 44.285156 55.269531 44.796875 L 51.980469 47.792969 C 51.753906 48.003906 51.648438 48.316406 51.710938 48.621094 L 52.609375 52.976562 C 52.765625 53.71875 51.96875 54.296875 51.3125 53.921875 L 47.449219 51.71875 C 47.179688 51.566406 46.847656 51.566406 46.574219 51.71875 L 42.714844 53.921875 C 42.054688 54.296875 41.257812 53.71875 41.414062 52.976562 L 42.3125 48.621094 C 42.375 48.316406 42.273438 48.003906 42.042969 47.792969 L 38.757812 44.800781 C 38.195312 44.289062 38.5 43.355469 39.253906 43.269531 L 43.671875 42.78125 C 43.980469 42.746094 44.25 42.550781 44.378906 42.269531 L 46.210938 38.21875 C 46.523438 37.527344 47.503906 37.527344 47.816406 38.21875 Z M 47.816406 38.21875 " fill-opacity="1" fill-rule="nonzero"/></g><path fill="#ffcc14" d="M 54.773438 43.269531 L 50.355469 42.78125 C 50.070312 42.75 49.824219 42.585938 49.6875 42.34375 C 48.449219 46.800781 45.476562 50.664062 41.417969 53.363281 C 41.546875 53.902344 42.175781 54.226562 42.714844 53.921875 L 46.578125 51.722656 C 46.847656 51.566406 47.179688 51.566406 47.449219 51.722656 L 51.3125 53.921875 C 51.972656 54.296875 52.765625 53.722656 52.613281 52.976562 L 51.714844 48.625 C 51.652344 48.316406 51.753906 48.003906 51.984375 47.792969 L 55.269531 44.800781 C 55.828125 44.289062 55.527344 43.355469 54.773438 43.269531 Z M 54.773438 43.269531 " fill-opacity="1" fill-rule="nonzero"/><path fill="#000000" d="M 67.253906 57.859375 C 67.070312 57.859375 66.890625 57.8125 66.730469 57.71875 L 63.855469 56.082031 C 63.816406 56.0625 63.773438 56.046875 63.730469 56.046875 C 63.6875 56.046875 63.640625 56.058594 63.605469 56.082031 L 60.726562 57.71875 C 60.566406 57.8125 60.386719 57.859375 60.203125 57.859375 C 59.890625 57.859375 59.582031 57.714844 59.382812 57.464844 C 59.183594 57.21875 59.105469 56.902344 59.167969 56.585938 L 59.839844 53.347656 C 59.855469 53.257812 59.824219 53.167969 59.761719 53.105469 L 57.316406 50.878906 C 57.003906 50.59375 56.890625 50.167969 57.023438 49.769531 C 57.152344 49.367188 57.496094 49.089844 57.914062 49.042969 L 61.199219 48.679688 C 61.289062 48.667969 61.367188 48.613281 61.40625 48.53125 L 62.769531 45.515625 C 62.945312 45.132812 63.3125 44.894531 63.734375 44.894531 C 64.152344 44.894531 64.523438 45.132812 64.695312 45.515625 L 66.058594 48.53125 C 66.097656 48.609375 66.175781 48.667969 66.265625 48.679688 L 69.550781 49.042969 C 69.972656 49.089844 70.3125 49.367188 70.441406 49.769531 C 70.570312 50.167969 70.460938 50.59375 70.148438 50.878906 L 67.703125 53.105469 C 67.636719 53.167969 67.609375 53.257812 67.628906 53.347656 L 68.296875 56.585938 C 68.359375 56.902344 68.285156 57.222656 68.085938 57.464844 C 67.875 57.714844 67.566406 57.859375 67.253906 57.859375 Z M 67.253906 57.859375 " fill-opacity="1" fill-rule="nonzero"/><path fill="#ffe245" d="M 64.324219 45.683594 L 65.691406 48.695312 C 65.785156 48.90625 65.984375 49.050781 66.214844 49.078125 L 69.503906 49.441406 C 70.0625 49.503906 70.289062 50.199219 69.871094 50.578125 L 67.429688 52.808594 C 67.257812 52.964844 67.179688 53.199219 67.226562 53.425781 L 67.894531 56.667969 C 68.007812 57.21875 67.417969 57.648438 66.929688 57.371094 L 64.054688 55.730469 C 63.851562 55.617188 63.605469 55.617188 63.40625 55.730469 L 60.53125 57.371094 C 60.042969 57.648438 59.449219 57.21875 59.566406 56.667969 L 60.234375 53.425781 C 60.28125 53.199219 60.203125 52.964844 60.03125 52.808594 L 57.589844 50.578125 C 57.171875 50.199219 57.394531 49.503906 57.957031 49.441406 L 61.246094 49.078125 C 61.476562 49.050781 61.675781 48.90625 61.769531 48.695312 L 63.132812 45.683594 C 63.363281 45.167969 64.09375 45.167969 64.324219 45.683594 Z M 64.324219 45.683594 " fill-opacity="1" fill-rule="nonzero"/><path fill="#ffcc14" d="M 69.503906 49.445312 L 66.214844 49.078125 C 66.003906 49.054688 65.820312 48.933594 65.71875 48.75 C 64.796875 52.070312 62.585938 54.945312 59.566406 56.957031 C 59.660156 57.355469 60.128906 57.601562 60.527344 57.371094 L 63.402344 55.734375 C 63.605469 55.617188 63.851562 55.617188 64.050781 55.734375 L 66.925781 57.371094 C 67.414062 57.648438 68.007812 57.222656 67.890625 56.667969 L 67.222656 53.429688 C 67.175781 53.203125 67.253906 52.964844 67.425781 52.808594 L 69.867188 50.582031 C 70.289062 50.199219 70.066406 49.507812 69.503906 49.445312 Z M 69.503906 49.445312 " fill-opacity="1" fill-rule="nonzero"/><path fill="#000000" d="M 33.820312 57.804688 C 33.640625 57.804688 33.460938 57.757812 33.300781 57.667969 L 30.425781 56.027344 C 30.386719 56.007812 30.34375 55.996094 30.300781 55.996094 C 30.253906 55.996094 30.210938 56.003906 30.171875 56.027344 L 27.296875 57.667969 C 27.136719 57.757812 26.957031 57.804688 26.773438 57.804688 C 26.460938 57.804688 26.152344 57.660156 25.953125 57.414062 C 25.753906 57.167969 25.675781 56.847656 25.738281 56.535156 L 26.40625 53.292969 C 26.425781 53.207031 26.394531 53.113281 26.332031 53.050781 L 23.886719 50.824219 C 23.574219 50.539062 23.460938 50.117188 23.59375 49.714844 C 23.722656 49.3125 24.0625 49.039062 24.484375 48.992188 L 27.769531 48.625 C 27.859375 48.613281 27.9375 48.558594 27.976562 48.476562 L 29.339844 45.460938 C 29.515625 45.078125 29.882812 44.839844 30.304688 44.839844 C 30.722656 44.839844 31.09375 45.078125 31.265625 45.460938 L 32.628906 48.476562 C 32.667969 48.558594 32.746094 48.613281 32.835938 48.625 L 36.121094 48.992188 C 36.542969 49.039062 36.882812 49.3125 37.011719 49.714844 C 37.140625 50.117188 37.03125 50.539062 36.71875 50.824219 L 34.273438 53.050781 C 34.207031 53.113281 34.179688 53.207031 34.199219 53.292969 L 34.867188 56.535156 C 34.929688 56.847656 34.855469 57.167969 34.652344 57.414062 C 34.445312 57.660156 34.136719 57.804688 33.820312 57.804688 Z M 33.820312 57.804688 " fill-opacity="1" fill-rule="nonzero"/><path fill="#ffe245" d="M 30.894531 45.628906 L 32.261719 48.640625 C 32.355469 48.851562 32.554688 48.996094 32.785156 49.023438 L 36.074219 49.386719 C 36.632812 49.449219 36.859375 50.144531 36.441406 50.527344 L 34 52.753906 C 33.828125 52.910156 33.75 53.144531 33.796875 53.371094 L 34.464844 56.613281 C 34.578125 57.167969 33.988281 57.597656 33.5 57.316406 L 30.625 55.679688 C 30.421875 55.5625 30.175781 55.5625 29.976562 55.679688 L 27.097656 57.316406 C 26.609375 57.59375 26.015625 57.167969 26.132812 56.613281 L 26.800781 53.371094 C 26.847656 53.144531 26.769531 52.910156 26.597656 52.753906 L 24.15625 50.527344 C 23.738281 50.144531 23.960938 49.449219 24.523438 49.386719 L 27.8125 49.023438 C 28.042969 48.996094 28.242188 48.851562 28.335938 48.640625 L 29.699219 45.628906 C 29.933594 45.113281 30.664062 45.113281 30.894531 45.628906 Z M 30.894531 45.628906 " fill-opacity="1" fill-rule="nonzero"/><path fill="#ffcc14" d="M 36.074219 49.390625 L 32.785156 49.023438 C 32.574219 49 32.390625 48.878906 32.289062 48.699219 C 31.367188 52.015625 29.15625 54.894531 26.136719 56.902344 C 26.230469 57.300781 26.699219 57.546875 27.097656 57.316406 L 29.972656 55.679688 C 30.171875 55.566406 30.417969 55.566406 30.621094 55.679688 L 33.496094 57.316406 C 33.984375 57.597656 34.578125 57.167969 34.460938 56.613281 L 33.792969 53.375 C 33.746094 53.148438 33.820312 52.914062 33.996094 52.757812 L 36.4375 50.527344 C 36.859375 50.144531 36.636719 49.453125 36.074219 49.390625 Z M 36.074219 49.390625 " fill-opacity="1" fill-rule="nonzero"/><g clip-path="url(#391e5a8fd4)"><path fill="#000000" d="M 79.617188 59.898438 C 79.484375 59.898438 79.347656 59.863281 79.230469 59.792969 L 77.101562 58.582031 C 77.074219 58.566406 77.042969 58.558594 77.011719 58.558594 C 76.976562 58.558594 76.945312 58.566406 76.917969 58.582031 L 74.789062 59.792969 C 74.671875 59.863281 74.535156 59.898438 74.402344 59.898438 C 74.171875 59.898438 73.945312 59.789062 73.792969 59.605469 C 73.648438 59.425781 73.589844 59.1875 73.636719 58.957031 L 74.128906 56.5625 C 74.144531 56.496094 74.121094 56.429688 74.074219 56.382812 L 72.265625 54.734375 C 72.035156 54.523438 71.953125 54.210938 72.046875 53.914062 C 72.144531 53.617188 72.394531 53.414062 72.707031 53.378906 L 75.136719 53.109375 C 75.203125 53.101562 75.261719 53.0625 75.289062 53 L 76.296875 50.773438 C 76.425781 50.488281 76.695312 50.3125 77.011719 50.3125 C 77.320312 50.3125 77.59375 50.488281 77.722656 50.773438 L 78.730469 53 C 78.757812 53.0625 78.816406 53.101562 78.882812 53.109375 L 81.3125 53.378906 C 81.625 53.414062 81.875 53.617188 81.972656 53.914062 C 82.070312 54.210938 81.984375 54.527344 81.753906 54.734375 L 79.945312 56.382812 C 79.898438 56.429688 79.875 56.496094 79.890625 56.5625 L 80.382812 58.957031 C 80.433594 59.1875 80.375 59.425781 80.226562 59.605469 C 80.074219 59.789062 79.847656 59.898438 79.617188 59.898438 Z M 79.617188 59.898438 " fill-opacity="1" fill-rule="nonzero"/></g><g clip-path="url(#51383a9877)"><path fill="#ffe245" d="M 77.453125 50.890625 L 78.460938 53.121094 C 78.53125 53.277344 78.679688 53.386719 78.847656 53.402344 L 81.28125 53.671875 C 81.695312 53.71875 81.863281 54.234375 81.554688 54.515625 L 79.746094 56.160156 C 79.621094 56.277344 79.5625 56.453125 79.597656 56.617188 L 80.089844 59.015625 C 80.175781 59.425781 79.738281 59.742188 79.375 59.535156 L 77.25 58.320312 C 77.101562 58.238281 76.917969 58.238281 76.769531 58.320312 L 74.644531 59.535156 C 74.28125 59.742188 73.84375 59.421875 73.925781 59.015625 L 74.421875 56.617188 C 74.457031 56.453125 74.398438 56.277344 74.273438 56.160156 L 72.464844 54.515625 C 72.15625 54.230469 72.324219 53.71875 72.738281 53.671875 L 75.167969 53.402344 C 75.339844 53.382812 75.488281 53.277344 75.558594 53.121094 L 76.566406 50.890625 C 76.738281 50.511719 77.28125 50.511719 77.453125 50.890625 Z M 77.453125 50.890625 " fill-opacity="1" fill-rule="nonzero"/></g><g clip-path="url(#a69bcd30ed)"><path fill="#ffcc14" d="M 81.28125 53.675781 L 78.847656 53.40625 C 78.695312 53.386719 78.558594 53.296875 78.480469 53.164062 C 77.800781 55.617188 76.164062 57.746094 73.929688 59.230469 C 74.003906 59.527344 74.347656 59.707031 74.644531 59.539062 L 76.769531 58.328125 C 76.917969 58.242188 77.101562 58.242188 77.25 58.328125 L 79.375 59.539062 C 79.738281 59.746094 80.175781 59.425781 80.09375 59.019531 L 79.597656 56.625 C 79.5625 56.457031 79.621094 56.28125 79.746094 56.167969 L 81.554688 54.519531 C 81.863281 54.234375 81.695312 53.71875 81.28125 53.675781 Z M 81.28125 53.675781 " fill-opacity="1" fill-rule="nonzero"/></g><g clip-path="url(#5100f32abb)"><path fill="#000000" d="M 19.621094 59.988281 C 19.488281 59.988281 19.355469 59.953125 19.234375 59.882812 L 17.109375 58.671875 C 17.082031 58.65625 17.046875 58.648438 17.015625 58.648438 C 16.984375 58.648438 16.949219 58.65625 16.921875 58.671875 L 14.796875 59.882812 C 14.675781 59.953125 14.542969 59.988281 14.410156 59.988281 C 14.175781 59.988281 13.949219 59.878906 13.800781 59.695312 C 13.652344 59.515625 13.59375 59.277344 13.640625 59.046875 L 14.136719 56.652344 C 14.148438 56.585938 14.128906 56.519531 14.078125 56.472656 L 12.269531 54.824219 C 12.039062 54.613281 11.957031 54.300781 12.054688 54.003906 C 12.148438 53.707031 12.402344 53.503906 12.710938 53.46875 L 15.140625 53.199219 C 15.210938 53.191406 15.265625 53.152344 15.292969 53.089844 L 16.300781 50.863281 C 16.429688 50.578125 16.703125 50.402344 17.015625 50.402344 C 17.328125 50.402344 17.597656 50.578125 17.730469 50.863281 L 18.738281 53.089844 C 18.765625 53.152344 18.820312 53.191406 18.886719 53.199219 L 21.320312 53.46875 C 21.628906 53.503906 21.878906 53.707031 21.976562 54.003906 C 22.074219 54.300781 21.992188 54.617188 21.761719 54.824219 L 19.953125 56.472656 C 19.902344 56.519531 19.878906 56.585938 19.894531 56.652344 L 20.390625 59.046875 C 20.4375 59.277344 20.378906 59.515625 20.230469 59.695312 C 20.082031 59.878906 19.851562 59.988281 19.621094 59.988281 Z M 19.621094 59.988281 " fill-opacity="1" fill-rule="nonzero"/></g><g clip-path="url(#116587743e)"><path fill="#ffe245" d="M 17.457031 50.980469 L 18.464844 53.210938 C 18.535156 53.367188 18.683594 53.476562 18.855469 53.492188 L 21.285156 53.761719 C 21.699219 53.808594 21.867188 54.324219 21.558594 54.605469 L 19.75 56.25 C 19.625 56.367188 19.566406 56.542969 19.601562 56.707031 L 20.097656 59.105469 C 20.179688 59.515625 19.742188 59.832031 19.378906 59.625 L 17.253906 58.410156 C 17.105469 58.328125 16.921875 58.328125 16.773438 58.410156 L 14.648438 59.625 C 14.285156 59.832031 13.847656 59.511719 13.933594 59.105469 L 14.425781 56.707031 C 14.460938 56.542969 14.40625 56.367188 14.277344 56.25 L 12.46875 54.605469 C 12.160156 54.320312 12.328125 53.808594 12.742188 53.761719 L 15.175781 53.492188 C 15.34375 53.472656 15.492188 53.367188 15.5625 53.210938 L 16.570312 50.980469 C 16.746094 50.601562 17.285156 50.601562 17.457031 50.980469 Z M 17.457031 50.980469 " fill-opacity="1" fill-rule="nonzero"/></g><g clip-path="url(#ef1c249908)"><path fill="#ffcc14" d="M 21.285156 53.765625 L 18.855469 53.496094 C 18.699219 53.476562 18.5625 53.386719 18.488281 53.253906 C 17.804688 55.707031 16.167969 57.835938 13.9375 59.320312 C 14.007812 59.617188 14.355469 59.796875 14.648438 59.628906 L 16.777344 58.417969 C 16.925781 58.332031 17.105469 58.332031 17.257812 58.417969 L 19.382812 59.628906 C 19.746094 59.835938 20.183594 59.515625 20.097656 59.109375 L 19.601562 56.710938 C 19.570312 56.542969 19.625 56.367188 19.753906 56.253906 L 21.5625 54.605469 C 21.867188 54.324219 21.699219 53.808594 21.285156 53.765625 Z M 21.285156 53.765625 " fill-opacity="1" fill-rule="nonzero"/></g></svg>