<?xml version="1.0" encoding="UTF-8"?><svg id="Layer_2" xmlns="http://www.w3.org/2000/svg" viewBox="0 0 397.99 143"><defs><style>.cls-1{fill:#17479e;}.cls-2{fill:#2cb34a;}</style></defs><g id="YOUR_ART_HERE"><polygon class="cls-1" points="0 107.71 21.42 107.71 32.99 48.19 53.03 107.71 71.7 107.71 88.37 0 65.85 0 57.95 57.87 41.87 0 19.75 0 0 107.71"/><path class="cls-1" d="m104.69,64.45l-7.59,43.26h-22.88L92.18,0h35.54c7.85,0,14.12.76,18.83,2.27,4.7,1.51,8.76,4.7,12.18,9.56,3.42,4.86,5.13,10.82,5.13,17.87,0,5.24-1.06,10.44-3.17,15.6-2.11,5.16-5.12,9.21-9.02,12.13-3.9,2.92-7.5,4.82-10.79,5.7-3.3.88-8.31,1.32-15.06,1.32h-21.14Zm7.43-46.16l-4.52,28.1h17.17c5.9,0,10.21-1.45,12.93-4.36,2.72-2.9,4.09-6.47,4.09-10.71,0-3.23-1.1-6.21-3.29-8.94-2.2-2.72-7.03-4.09-14.49-4.09h-11.88Z"/><path class="cls-1" d="m116.5,107.74c-3.87,0-6.87-1.09-9-3.28-2.14-2.19-3.2-5.29-3.2-9.32s1.03-7.12,3.11-9.47c2.07-2.34,4.78-3.52,8.12-3.52,1.51,0,2.84.22,4,.65,1.16.44,2.17,1.12,3.04,2.05.87.93,1.53,2.07,2,3.41.46,1.34.7,2.99.7,4.94v2.22h-16.85c0,2.83.71,4.99,2.13,6.48,1.42,1.49,3.39,2.24,5.91,2.24.9,0,1.78-.1,2.65-.3.86-.2,1.65-.46,2.34-.77.74-.33,1.36-.65,1.87-.96.51-.31.93-.6,1.26-.87h.24v4.44c-.48.19-1.07.43-1.78.71-.71.28-1.35.51-1.91.66-.8.22-1.52.39-2.16.5-.64.12-1.46.17-2.44.17Zm4.72-15.44c-.03-1.12-.16-2.09-.39-2.9-.23-.81-.57-1.5-1-2.06-.48-.62-1.09-1.09-1.83-1.42-.75-.32-1.67-.49-2.77-.49s-2.01.17-2.77.5c-.76.33-1.45.81-2.07,1.45-.61.65-1.07,1.37-1.39,2.16-.32.79-.52,1.71-.61,2.76h12.83Z"/><path class="cls-1" d="m148.69,107.22h-4.1v-13.9c0-1.12-.05-2.17-.16-3.14-.11-.97-.32-1.75-.62-2.33-.34-.61-.8-1.07-1.4-1.37-.6-.3-1.41-.45-2.45-.45s-2.07.27-3.16.82c-1.08.55-2.14,1.26-3.18,2.13v18.23h-4.1v-24.39h4.1v2.71c1.22-1.09,2.43-1.93,3.62-2.51,1.19-.58,2.45-.87,3.78-.87,2.4,0,4.28.79,5.63,2.37,1.35,1.58,2.03,3.87,2.03,6.86v15.82Z"/><path class="cls-1" d="m173.14,82.83l-9.16,24.39h-3.68l-9.09-24.39h4.38l6.66,18.79,6.59-18.79h4.3Z"/><rect class="cls-1" x="176.37" y="82.83" width="4.1" height="24.39"/><path class="cls-1" d="m199.41,87.31h-.22c-.3-.1-.63-.16-.97-.19-.34-.02-.75-.04-1.23-.04-1.1,0-2.2.24-3.29.72-1.09.48-2.12,1.19-3.09,2.14v17.28h-4.1v-24.39h4.1v3.62c1.49-1.32,2.8-2.26,3.91-2.8,1.11-.55,2.19-.82,3.23-.82.42,0,.74.01.95.03.21.02.45.05.71.1v4.34Z"/><path class="cls-1" d="m222.38,95.04c0,4.1-.99,7.27-2.96,9.51-1.97,2.23-4.6,3.35-7.87,3.35s-6.03-1.15-7.97-3.46c-1.94-2.31-2.9-5.44-2.9-9.4s1-7.24,2.99-9.49c1.99-2.26,4.62-3.38,7.88-3.38s5.9,1.12,7.87,3.37c1.97,2.25,2.96,5.41,2.96,9.5Zm-4.25,0c0-3.14-.57-5.48-1.71-7-1.14-1.53-2.76-2.29-4.87-2.29s-3.76.76-4.9,2.29c-1.15,1.53-1.72,3.86-1.72,7s.57,5.35,1.72,6.92c1.15,1.57,2.78,2.36,4.9,2.36s3.71-.77,4.86-2.31c1.15-1.54,1.72-3.86,1.72-6.96Z"/><path class="cls-1" d="m245.82,107.22h-4.1v-13.9c0-1.12-.05-2.17-.16-3.14-.11-.97-.32-1.75-.62-2.33-.34-.61-.8-1.07-1.4-1.37-.6-.3-1.41-.45-2.45-.45s-2.07.27-3.16.82c-1.08.55-2.14,1.26-3.18,2.13v18.23h-4.1v-24.39h4.1v2.71c1.22-1.09,2.43-1.93,3.62-2.51,1.19-.58,2.45-.87,3.78-.87,2.4,0,4.28.79,5.63,2.37,1.35,1.58,2.03,3.87,2.03,6.86v15.82Z"/><path class="cls-1" d="m279.16,107.22v-14.12c0-1.12-.04-2.16-.13-3.11-.09-.95-.27-1.7-.54-2.24-.29-.58-.7-1.01-1.24-1.29-.54-.28-1.26-.42-2.17-.42-.84,0-1.74.26-2.71.78-.96.52-1.96,1.27-2.99,2.25.01.25.03.54.05.88.02.34.03.75.03,1.21v16.05h-4.1v-14.12c0-1.12-.04-2.16-.13-3.11-.09-.95-.27-1.7-.54-2.24-.29-.58-.7-1.01-1.24-1.29-.54-.28-1.26-.42-2.17-.42s-1.81.28-2.78.84c-.97.56-1.91,1.27-2.83,2.13v18.21h-4.1v-24.39h4.1v2.71c1.07-1.08,2.14-1.91,3.19-2.5,1.05-.59,2.21-.88,3.47-.88,1.44,0,2.71.33,3.82.98,1.11.66,1.96,1.73,2.54,3.23,1.23-1.38,2.44-2.43,3.61-3.14,1.17-.71,2.45-1.07,3.83-1.07,1.04,0,1.99.16,2.85.49.86.33,1.6.86,2.24,1.58.65.74,1.16,1.67,1.51,2.77.36,1.11.53,2.49.53,4.17v16.04h-4.1Z"/><path class="cls-1" d="m299.58,107.74c-3.87,0-6.87-1.09-9.01-3.28-2.14-2.19-3.2-5.29-3.2-9.32s1.03-7.12,3.11-9.47c2.07-2.34,4.78-3.52,8.12-3.52,1.51,0,2.84.22,4,.65,1.16.44,2.17,1.12,3.04,2.05.87.93,1.53,2.07,2,3.41.46,1.34.7,2.99.7,4.94v2.22h-16.85c0,2.83.71,4.99,2.13,6.48,1.42,1.49,3.39,2.24,5.9,2.24.9,0,1.78-.1,2.65-.3.86-.2,1.65-.46,2.34-.77.74-.33,1.36-.65,1.87-.96.51-.31.93-.6,1.26-.87h.24v4.44c-.48.19-1.07.43-1.78.71-.71.28-1.35.51-1.91.66-.8.22-1.52.39-2.16.5-.64.12-1.46.17-2.44.17Zm4.72-15.44c-.03-1.12-.16-2.09-.39-2.9-.23-.81-.57-1.5-1-2.06-.48-.62-1.09-1.09-1.83-1.42-.75-.32-1.67-.49-2.77-.49s-2.01.17-2.77.5c-.76.33-1.45.81-2.07,1.45-.61.65-1.07,1.37-1.39,2.16-.32.79-.52,1.71-.61,2.76h12.83Z"/><path class="cls-1" d="m331.77,107.22h-4.1v-13.9c0-1.12-.05-2.17-.16-3.14-.11-.97-.32-1.75-.62-2.33-.34-.61-.8-1.07-1.4-1.37-.6-.3-1.41-.45-2.45-.45s-2.07.27-3.15.82c-1.09.55-2.14,1.26-3.18,2.13v18.23h-4.1v-24.39h4.1v2.71c1.22-1.09,2.43-1.93,3.62-2.51,1.19-.58,2.45-.87,3.78-.87,2.4,0,4.28.79,5.63,2.37,1.35,1.58,2.03,3.87,2.03,6.86v15.82Z"/><path class="cls-1" d="m344.85,107.74c-2.24,0-3.98-.64-5.23-1.91-1.25-1.27-1.87-3.29-1.87-6.04v-13.53h-2.76v-3.43h2.76v-7.01h4.1v7.01h7.53v3.43h-7.53v11.62c0,1.24.02,2.2.07,2.87.04.67.21,1.3.5,1.88.25.51.64.89,1.2,1.15.55.26,1.3.38,2.24.38.67,0,1.31-.1,1.94-.31.62-.2,1.07-.37,1.35-.51h.24v3.7c-.77.22-1.55.39-2.34.51-.79.12-1.52.19-2.19.19Z"/><path class="cls-1" d="m366.04,104.62c-.33.25-.78.59-1.34,1.04-.56.44-1.1.8-1.62,1.06-.73.38-1.43.67-2.1.87-.68.2-1.62.3-2.84.3-1,0-1.95-.19-2.85-.57-.9-.38-1.69-.91-2.37-1.59-.65-.67-1.18-1.49-1.57-2.47-.39-.98-.59-2.02-.59-3.11,0-1.69.36-3.12,1.07-4.31.71-1.18,1.84-2.13,3.38-2.82,1.36-.62,2.97-1.06,4.83-1.3,1.86-.24,3.86-.42,6.01-.53v-.8c0-.97-.15-1.76-.43-2.35-.29-.6-.7-1.06-1.22-1.38-.52-.34-1.16-.56-1.91-.67-.75-.11-1.53-.17-2.32-.17-.94,0-2.05.15-3.32.44-1.28.29-2.55.72-3.82,1.28h-.24v-4.18c.76-.22,1.84-.46,3.24-.72,1.41-.26,2.8-.39,4.18-.39,1.67,0,3.08.13,4.22.39,1.15.26,2.18.74,3.09,1.42.89.67,1.55,1.54,1.98,2.6.44,1.06.65,2.36.65,3.89v16.68h-4.1v-2.6Zm0-3.4v-6.75c-.97.09-2.2.21-3.68.36-1.48.15-2.68.36-3.59.64-1.09.33-1.99.84-2.7,1.53s-1.06,1.65-1.06,2.88c0,1.39.39,2.44,1.17,3.15.78.71,1.93,1.06,3.43,1.06,1.29,0,2.45-.28,3.5-.83,1.04-.55,2.02-1.23,2.93-2.04Z"/><path class="cls-1" d="m380.1,107.22h-4.1v-33.93h4.1v33.93Z"/><path class="cls-2" d="m171.71,77.04c-3.08-.14-3.98.63-3.98.63l12.1-7.91-3.56-1.13s-6.89-2.56,2.78-10.32c5.75-4.62,10.73-5.65,10.73-5.65,0,0,7.85-2.28,9.6,1.32,1.76,3.59-1.13,11.86-1.13,11.86,0,0-1.5,5.84-8.09,8.66-6.59,2.82-7.16-4.33-7.16-4.33,0,0-4.77,2.26-7.1,4.19-2.32,1.93-2.1,3.58-2.1,3.58,0,0-.03-.81-2.1-.91Z"/><path class="cls-1" d="m389.56,101.81h-2.31v5.16h-.86v-5.16h-2.31v-.68h5.49v.68Z"/><path class="cls-1" d="m397.99,106.96h-.86v-5.03l-1.8,3.43h-.51l-1.79-3.43v5.03h-.81v-5.84h1.18l1.73,3.26,1.67-3.26h1.2v5.84Z"/><path class="cls-2" d="m12.5,136.39l1.52-8.68H5.09l-1.54,8.68H.15l3.45-19.52h3.39l-1.41,7.91h8.96l1.41-7.91h3.39l-3.45,19.52h-3.39Z"/><path class="cls-2" d="m23.42,130.79c-.02.09-.03.19-.03.3,0,.44.09.85.26,1.21.17.37.42.69.73.95.31.27.68.48,1.1.63s.88.23,1.38.23c.84,0,1.57-.15,2.16-.47.6-.31,1.13-.73,1.61-1.27l1.85,1.74c-1.64,1.77-3.63,2.65-5.98,2.65-.9,0-1.73-.13-2.48-.4s-1.41-.65-1.96-1.14c-.55-.5-.98-1.11-1.3-1.83-.31-.73-.47-1.56-.47-2.49,0-1.14.19-2.2.58-3.19.39-.98.92-1.84,1.61-2.58.69-.73,1.51-1.31,2.45-1.72.95-.41,1.98-.62,3.1-.62.79,0,1.52.11,2.19.33.67.22,1.25.55,1.75.99.5.44.88.99,1.16,1.65s.41,1.43.41,2.32c0,.29-.03.7-.08,1.23-.05.52-.14,1.02-.25,1.48h-9.81Zm7.17-2.32c.02-.13.03-.25.04-.36,0-.11.01-.22.01-.33,0-.72-.25-1.32-.76-1.82-.51-.5-1.22-.74-2.14-.74-.57,0-1.08.1-1.54.31-.46.2-.86.46-1.2.79-.34.32-.62.68-.84,1.06-.22.39-.37.75-.44,1.1h6.86Z"/><path class="cls-2" d="m44.78,128.01c.04-.22.06-.39.07-.51s.01-.23.01-.34c0-.64-.21-1.1-.62-1.38-.41-.28-1.02-.41-1.83-.41-.64,0-1.31.12-2,.37-.69.25-1.3.57-1.83.95l-1.24-2.18c.75-.53,1.61-.95,2.58-1.25s1.95-.46,2.96-.46c.62,0,1.25.07,1.86.21.62.14,1.17.36,1.65.68.49.31.88.72,1.17,1.23s.44,1.14.44,1.89c0,.17,0,.37-.03.61-.02.24-.05.45-.08.63l-.96,5.38c-.09.51-.17,1.05-.23,1.6-.07.55-.1,1.01-.1,1.38h-2.98c0-.5.06-1.02.17-1.57h-.05c-1.03,1.23-2.46,1.85-4.3,1.85-.46,0-.94-.06-1.43-.17s-.95-.3-1.35-.57c-.4-.26-.74-.62-.99-1.07-.26-.45-.39-1.02-.39-1.7,0-1.08.29-1.96.87-2.63s1.33-1.2,2.25-1.57c.92-.37,1.94-.63,3.07-.76,1.13-.13,2.24-.19,3.32-.19Zm-.69,2.32c-.62,0-1.27.02-1.94.07-.67.05-1.29.15-1.85.32-.56.16-1.02.4-1.38.7-.36.3-.54.71-.54,1.23,0,.31.06.57.18.79.12.21.28.38.48.51.2.13.43.22.69.28.26.06.52.08.8.08.5,0,.96-.08,1.39-.25.43-.17.81-.39,1.13-.68.32-.28.59-.61.8-.99s.36-.79.46-1.23l.16-.83h-.39Z"/><path class="cls-2" d="m50.05,125.8l.47-2.64h2.29l.66-3.86h3.2l-.66,3.86h2.98l-.47,2.64h-2.92l-1.16,6.19c-.06.27-.08.53-.08.77,0,.47.14.8.43.98.28.18.67.27,1.14.27.22,0,.44-.02.65-.05s.41-.07.59-.12l-.19,2.45c-.28.11-.6.2-.98.26-.38.06-.72.1-1.03.1-1.4,0-2.39-.28-2.98-.84s-.88-1.3-.88-2.21c0-.26.01-.54.04-.84.03-.3.07-.58.12-.84l1.13-6.13h-2.34Z"/><path class="cls-2" d="m75.82,116.87c2.15,0,3.79.45,4.93,1.35,1.14.9,1.71,2.16,1.71,3.78,0,1.1-.2,2.05-.59,2.84-.39.79-.96,1.44-1.68,1.96s-1.6.89-2.6,1.13c-1.01.24-2.12.36-3.34.36h-2.95l-1.43,8.11h-3.36l3.45-19.52h5.87Zm-1.46,8.55c.68,0,1.31-.05,1.89-.15.58-.1,1.07-.27,1.47-.51.4-.24.72-.55.95-.94s.34-.87.34-1.46c0-.51-.09-.94-.27-1.28-.18-.34-.44-.61-.77-.8s-.73-.33-1.19-.42c-.46-.08-.96-.12-1.52-.12h-2.48l-1.02,5.68h2.59Z"/><path class="cls-2" d="m90.85,134.32c-.46.72-1.04,1.3-1.75,1.75-.71.45-1.56.68-2.55.68-.74,0-1.37-.11-1.92-.33-.54-.22-.99-.51-1.35-.88-.36-.37-.62-.8-.8-1.31-.17-.5-.26-1.03-.26-1.58,0-.46.04-.87.11-1.24l1.46-8.24h3.22l-1.27,7.28c-.04.22-.07.44-.1.66-.03.22-.04.44-.04.66,0,.59.16,1.11.47,1.56.31.45.88.68,1.71.68.51,0,.98-.1,1.39-.3.41-.2.77-.47,1.07-.81.3-.34.55-.72.74-1.14.19-.42.33-.85.4-1.29l1.3-7.28h3.22l-1.82,10.39c-.07.35-.15.8-.23,1.35-.08.55-.14,1.05-.18,1.49h-3.03c.02-.2.06-.52.11-.95.05-.43.1-.8.14-1.12h-.06Z"/><path class="cls-2" d="m99.99,124.64c.08-.55.14-1.05.18-1.49h3.03c-.02.2-.05.52-.11.96-.05.44-.1.81-.14,1.1h.05c.4-.62.93-1.18,1.58-1.68s1.48-.74,2.49-.74c1.1,0,1.99.24,2.66.73s1.11,1.11,1.31,1.86c.57-.81,1.24-1.44,2.01-1.9.77-.46,1.66-.69,2.67-.69.77,0,1.43.11,1.99.33.55.22,1.01.52,1.38.88.37.37.64.8.81,1.31.17.51.26,1.03.26,1.59,0,.46-.04.87-.11,1.24l-1.46,8.24h-3.22l1.27-7.28c.04-.22.07-.44.1-.66.03-.22.04-.44.04-.66,0-.29-.04-.58-.11-.85-.07-.28-.19-.51-.36-.72-.16-.2-.39-.37-.68-.5-.28-.13-.64-.19-1.06-.19-.51,0-.97.11-1.38.33s-.76.5-1.06.85-.55.74-.73,1.17c-.18.43-.31.86-.39,1.28l-1.27,7.22h-3.25l1.41-8c.05-.27.08-.52.08-.74,0-.63-.16-1.14-.5-1.53s-.85-.59-1.54-.59c-.5,0-.94.11-1.34.32-.4.21-.74.48-1.03.81-.29.33-.54.71-.73,1.14-.19.43-.33.87-.4,1.31l-1.3,7.28h-3.22l1.82-10.39c.07-.35.15-.8.23-1.35Z"/><path class="cls-2" d="m124.59,142.98h-3.25l3.5-19.82h3.06l-.33,2.12h.08c.53-.77,1.21-1.37,2.04-1.79.83-.42,1.74-.63,2.73-.63.84,0,1.61.14,2.3.41.69.28,1.28.67,1.76,1.17.49.51.86,1.11,1.13,1.81.27.7.4,1.47.4,2.32,0,1.14-.18,2.21-.54,3.2-.36.99-.86,1.86-1.5,2.6-.64.74-1.41,1.33-2.3,1.76-.89.43-1.87.65-2.94.65-1.21,0-2.19-.22-2.94-.67-.74-.45-1.31-1.06-1.69-1.84h-.05l-1.46,8.71Zm10.12-14.04c0-.97-.28-1.79-.84-2.45s-1.37-.99-2.41-.99c-.64,0-1.25.14-1.82.41-.57.27-1.06.65-1.48,1.13-.41.48-.74,1.03-.98,1.66-.24.63-.36,1.3-.36,1.99,0,1.01.3,1.83.91,2.47.61.64,1.42.96,2.45.96.68,0,1.3-.14,1.86-.41.56-.28,1.04-.65,1.43-1.11.39-.47.7-1.02.91-1.65.21-.63.32-1.31.32-2.02Z"/><path class="cls-2" d="m159.43,136.39l1.52-8.68h-8.93l-1.54,8.68h-3.39l3.45-19.52h3.39l-1.41,7.91h8.96l1.41-7.91h3.39l-3.45,19.52h-3.39Z"/><path class="cls-2" d="m170.35,130.79c-.02.09-.03.19-.03.3,0,.44.09.85.26,1.21.17.37.42.69.73.95.31.27.68.48,1.1.63s.88.23,1.38.23c.84,0,1.57-.15,2.16-.47.6-.31,1.13-.73,1.61-1.27l1.85,1.74c-1.64,1.77-3.63,2.65-5.98,2.65-.9,0-1.73-.13-2.48-.4s-1.41-.65-1.96-1.14c-.55-.5-.98-1.11-1.3-1.83-.31-.73-.47-1.56-.47-2.49,0-1.14.19-2.2.58-3.19.39-.98.92-1.84,1.61-2.58.69-.73,1.51-1.31,2.45-1.72.95-.41,1.98-.62,3.1-.62.79,0,1.52.11,2.19.33.67.22,1.25.55,1.75.99.5.44.88.99,1.16,1.65.28.66.41,1.43.41,2.32,0,.29-.03.7-.08,1.23-.05.52-.14,1.02-.25,1.48h-9.81Zm7.17-2.32c.02-.13.03-.25.04-.36,0-.11.01-.22.01-.33,0-.72-.25-1.32-.76-1.82-.51-.5-1.22-.74-2.14-.74-.57,0-1.08.1-1.54.31-.46.2-.86.46-1.2.79-.34.32-.62.68-.84,1.06-.22.39-.37.75-.44,1.1h6.86Z"/><path class="cls-2" d="m191.71,128.01c.04-.22.06-.39.07-.51s.01-.23.01-.34c0-.64-.21-1.1-.62-1.38-.41-.28-1.02-.41-1.83-.41-.64,0-1.31.12-2,.37-.69.25-1.3.57-1.83.95l-1.24-2.18c.75-.53,1.61-.95,2.58-1.25s1.95-.46,2.96-.46c.62,0,1.25.07,1.86.21.62.14,1.17.36,1.65.68.49.31.88.72,1.17,1.23s.44,1.14.44,1.89c0,.17,0,.37-.03.61-.02.24-.05.45-.08.63l-.96,5.38c-.09.51-.17,1.05-.23,1.6-.07.55-.1,1.01-.1,1.38h-2.98c0-.5.06-1.02.17-1.57h-.05c-1.03,1.23-2.46,1.85-4.3,1.85-.46,0-.94-.06-1.43-.17s-.95-.3-1.35-.57c-.4-.26-.74-.62-.99-1.07-.26-.45-.39-1.02-.39-1.7,0-1.08.29-1.96.87-2.63s1.33-1.2,2.25-1.57c.92-.37,1.94-.63,3.07-.76,1.13-.13,2.24-.19,3.32-.19Zm-.69,2.32c-.62,0-1.27.02-1.94.07-.67.05-1.29.15-1.85.32-.56.16-1.02.4-1.38.7-.36.3-.54.71-.54,1.23,0,.31.06.57.18.79.12.21.28.38.48.51.2.13.43.22.69.28.26.06.52.08.8.08.5,0,.96-.08,1.39-.25.43-.17.81-.39,1.13-.68.32-.28.59-.61.8-.99s.36-.79.46-1.23l.16-.83h-.39Z"/><path class="cls-2" d="m196.98,125.8l.47-2.64h2.29l.66-3.86h3.2l-.66,3.86h2.98l-.47,2.64h-2.92l-1.16,6.19c-.06.27-.08.53-.08.77,0,.47.14.8.43.98.28.18.67.27,1.14.27.22,0,.44-.02.65-.05s.41-.07.59-.12l-.19,2.45c-.28.11-.6.2-.98.26-.38.06-.72.1-1.03.1-1.4,0-2.39-.28-2.98-.84s-.88-1.3-.88-2.21c0-.26.01-.54.04-.84.03-.3.07-.58.12-.84l1.13-6.13h-2.34Z"/><path class="cls-2" d="m206.41,136.39l2.32-13.23h3.25l-2.34,13.23h-3.22Zm6.64-17.78c0,.53-.19,1-.57,1.41s-.84.61-1.39.61-.99-.16-1.36-.5c-.38-.33-.57-.8-.57-1.41s.2-1.07.61-1.45c.4-.38.87-.57,1.41-.57s.98.17,1.34.51c.36.34.54.8.54,1.39Z"/><path class="cls-2" d="m218.84,125.22c.46-.72,1.04-1.3,1.75-1.75.71-.45,1.56-.68,2.55-.68.73,0,1.37.11,1.92.33.54.22.99.52,1.35.88.36.37.62.8.8,1.31.17.51.26,1.03.26,1.59,0,.46-.04.87-.11,1.24l-1.46,8.24h-3.23l1.27-7.28c.04-.22.07-.44.1-.66.03-.22.04-.44.04-.66,0-.59-.16-1.11-.47-1.56-.31-.45-.88-.68-1.71-.68-.53,0-1,.1-1.41.3-.4.2-.76.47-1.06.81-.3.34-.55.72-.74,1.14-.19.42-.33.85-.4,1.3l-1.3,7.28h-3.22l1.82-10.39c.07-.35.15-.8.23-1.35.08-.55.14-1.05.18-1.49h3.03c-.02.2-.05.52-.11.95-.05.43-.1.8-.14,1.11h.05Z"/><path class="cls-2" d="m242.13,125.17l.33-2.01h3.09l-2.1,12.1c-.2,1.16-.5,2.21-.88,3.17-.39.96-.9,1.77-1.54,2.45-.64.68-1.44,1.2-2.4,1.57s-2.1.55-3.45.55c-.55,0-1.12-.05-1.71-.15-.59-.1-1.17-.25-1.74-.46s-1.11-.45-1.61-.74c-.51-.29-.94-.63-1.31-1.02l2.15-2.34c.51.61,1.15,1.07,1.9,1.41.75.33,1.55.5,2.4.5s1.49-.12,2.05-.35c.56-.23,1.03-.55,1.42-.96s.69-.89.91-1.45c.22-.56.4-1.18.55-1.84l.22-1.05h-.05c-.48.63-1.11,1.14-1.89,1.52s-1.67.57-2.66.57c-.85,0-1.61-.14-2.3-.42-.69-.28-1.28-.66-1.76-1.16-.49-.5-.86-1.09-1.13-1.79-.27-.7-.4-1.47-.4-2.32,0-1.12.18-2.18.54-3.17.36-.99.86-1.86,1.5-2.6.64-.74,1.41-1.33,2.3-1.75.89-.42,1.87-.63,2.94-.63,1.21,0,2.19.22,2.92.66.73.44,1.28,1.01,1.63,1.71h.08Zm-8.6,5.39c0,.97.28,1.79.84,2.45s1.37.99,2.41.99c.64,0,1.25-.14,1.82-.41.57-.27,1.06-.65,1.48-1.13.41-.48.74-1.03.98-1.65.24-.62.36-1.28.36-1.98,0-1.01-.3-1.83-.91-2.47-.61-.64-1.42-.96-2.45-.96-.68,0-1.3.14-1.86.41-.56.27-1.04.65-1.43,1.11s-.7,1.01-.91,1.64c-.21.62-.32,1.29-.32,2.01Z"/><path class="cls-2" d="m266.53,129.44l2.37-3.36h3.91l-4.36,5.54,4.05,4.77h-4.02l-1.93-2.45c-1.07,1.07-2.11,1.81-3.11,2.22-1.01.41-2.04.62-3.09.62-.88,0-1.69-.11-2.43-.33-.73-.22-1.37-.55-1.9-.99-.53-.44-.95-.99-1.26-1.64-.3-.65-.45-1.41-.45-2.27,0-.77.14-1.48.41-2.12.27-.64.65-1.22,1.12-1.72.47-.5,1.02-.95,1.67-1.32.64-.37,1.32-.7,2.04-.98-.37-.53-.67-1.11-.9-1.74-.23-.62-.35-1.29-.35-1.99,0-.81.14-1.54.43-2.19.28-.65.67-1.21,1.16-1.67.49-.46,1.06-.81,1.72-1.06.66-.25,1.37-.37,2.12-.37s1.39.1,2.01.3,1.16.5,1.61.88c.45.39.81.85,1.07,1.41.27.55.4,1.18.4,1.9,0,1.23-.44,2.28-1.32,3.14-.88.86-2.08,1.63-3.58,2.29l2.59,3.14Zm-5.35-1.9c-.48.16-.93.36-1.36.58-.43.22-.8.48-1.12.77-.31.29-.56.64-.74,1.03-.18.4-.28.84-.28,1.34,0,.39.08.74.23,1.08.16.33.37.61.63.84.27.23.58.41.94.54.36.13.74.19,1.14.19.81,0,1.53-.19,2.16-.58s1.24-.93,1.81-1.63l-3.42-4.16Zm4.6-6.51c0-.61-.17-1.09-.52-1.46-.35-.37-.84-.55-1.46-.55-.73,0-1.33.24-1.78.72-.45.48-.68,1.07-.68,1.79,0,.48.11.98.33,1.5.22.52.48.95.77,1.28.46-.17.89-.36,1.3-.59.4-.23.76-.48,1.06-.76s.54-.57.72-.9c.17-.32.26-.66.26-1.03Z"/><path class="cls-2" d="m298.65,133.33c-.39.5-.84.96-1.35,1.39-.51.43-1.09.81-1.74,1.13-.64.32-1.35.57-2.12.76s-1.62.28-2.54.28c-1.31,0-2.49-.2-3.56-.61s-1.98-.97-2.74-1.71-1.36-1.62-1.78-2.65c-.42-1.03-.63-2.17-.63-3.42,0-1.69.29-3.27.88-4.74.59-1.47,1.4-2.75,2.44-3.85,1.04-1.09,2.26-1.96,3.65-2.59,1.4-.63,2.9-.95,4.52-.95.72,0,1.41.07,2.08.22.67.15,1.3.35,1.87.61.58.26,1.1.57,1.56.94.46.37.84.77,1.13,1.21l-2.67,2.01c-.15-.22-.34-.46-.58-.7-.24-.25-.53-.47-.88-.68s-.74-.37-1.17-.5c-.43-.13-.91-.19-1.45-.19-1.16,0-2.22.25-3.18.74s-1.79,1.16-2.48,1.99c-.69.83-1.23,1.76-1.61,2.81-.39,1.05-.58,2.12-.58,3.23,0,.81.12,1.57.37,2.27s.61,1.32,1.08,1.85c.47.52,1.05.94,1.75,1.25.7.31,1.5.47,2.4.47.97,0,1.9-.2,2.78-.61.88-.4,1.67-1.04,2.37-1.9l2.18,1.93Z"/><path class="cls-2" d="m306.45,136.75c-.92,0-1.77-.14-2.55-.42-.78-.27-1.46-.67-2.03-1.18-.57-.51-1.02-1.12-1.34-1.82-.32-.7-.48-1.48-.48-2.34,0-1.09.19-2.12.56-3.1s.91-1.85,1.61-2.6c.7-.75,1.54-1.36,2.52-1.81.98-.45,2.08-.68,3.29-.68.94,0,1.8.14,2.58.41.78.28,1.46.67,2.03,1.17.57.5,1.02,1.11,1.34,1.82.32.71.48,1.48.48,2.33,0,1.1-.19,2.15-.57,3.14-.38.99-.91,1.86-1.61,2.62s-1.54,1.35-2.54,1.79c-.99.44-2.09.66-3.31.66Zm4.77-7.87c0-1-.3-1.81-.91-2.46-.61-.65-1.43-.97-2.48-.97-.7,0-1.33.14-1.89.43-.56.28-1.04.67-1.43,1.15-.4.48-.7,1.03-.92,1.66-.22.63-.33,1.29-.33,1.99,0,.99.29,1.81.88,2.46.59.64,1.41.97,2.48.97.7,0,1.33-.14,1.9-.42s1.05-.65,1.45-1.13c.39-.48.7-1.04.92-1.67.22-.63.33-1.3.33-2.01Z"/><path class="cls-2" d="m323.1,136.75c-.92,0-1.77-.14-2.55-.42-.78-.27-1.46-.67-2.03-1.18-.57-.51-1.02-1.12-1.34-1.82-.32-.7-.48-1.48-.48-2.34,0-1.09.19-2.12.56-3.1s.91-1.85,1.61-2.6c.7-.75,1.54-1.36,2.52-1.81.98-.45,2.08-.68,3.29-.68.94,0,1.8.14,2.58.41.78.28,1.46.67,2.03,1.17.57.5,1.02,1.11,1.34,1.82.32.71.48,1.48.48,2.33,0,1.1-.19,2.15-.57,3.14-.38.99-.91,1.86-1.61,2.62s-1.54,1.35-2.54,1.79c-.99.44-2.09.66-3.31.66Zm4.77-7.87c0-1-.3-1.81-.91-2.46-.61-.65-1.43-.97-2.48-.97-.7,0-1.33.14-1.89.43-.56.28-1.04.67-1.43,1.15-.4.48-.7,1.03-.92,1.66-.22.63-.33,1.29-.33,1.99,0,.99.29,1.81.88,2.46.59.64,1.41.97,2.48.97.7,0,1.33-.14,1.9-.42s1.05-.65,1.45-1.13c.39-.48.7-1.04.92-1.67.22-.63.33-1.3.33-2.01Z"/><path class="cls-2" d="m333.19,136.39l3.67-20.84h3.25l-3.69,20.84h-3.22Z"/><path class="cls-2" d="m340.55,136.39l2.32-13.23h3.25l-2.34,13.23h-3.22Zm6.64-17.78c0,.53-.19,1-.57,1.41s-.84.61-1.39.61-.99-.16-1.36-.5c-.38-.33-.57-.8-.57-1.41s.2-1.07.61-1.45c.4-.38.87-.57,1.41-.57s.98.17,1.34.51c.36.34.54.8.54,1.39Z"/><path class="cls-2" d="m352.98,125.22c.46-.72,1.04-1.3,1.75-1.75.71-.45,1.56-.68,2.55-.68.73,0,1.37.11,1.92.33.54.22.99.52,1.35.88.36.37.62.8.8,1.31.17.51.26,1.03.26,1.59,0,.46-.04.87-.11,1.24l-1.46,8.24h-3.23l1.27-7.28c.04-.22.07-.44.1-.66.03-.22.04-.44.04-.66,0-.59-.16-1.11-.47-1.56-.31-.45-.88-.68-1.71-.68-.53,0-1,.1-1.41.3-.4.2-.76.47-1.06.81-.3.34-.55.72-.74,1.14-.19.42-.33.85-.4,1.3l-1.3,7.28h-3.22l1.82-10.39c.07-.35.15-.8.23-1.35.08-.55.14-1.05.18-1.49h3.03c-.02.2-.05.52-.11.95-.05.43-.1.8-.14,1.11h.05Z"/><path class="cls-2" d="m376.28,125.17l.33-2.01h3.09l-2.1,12.1c-.2,1.16-.5,2.21-.88,3.17s-.9,1.77-1.54,2.45c-.64.68-1.44,1.2-2.4,1.57s-2.1.55-3.45.55c-.55,0-1.12-.05-1.71-.15-.59-.1-1.17-.25-1.74-.46s-1.11-.45-1.61-.74c-.51-.29-.94-.63-1.31-1.02l2.15-2.34c.51.61,1.15,1.07,1.9,1.41.75.33,1.55.5,2.4.5s1.49-.12,2.05-.35c.56-.23,1.03-.55,1.42-.96s.69-.89.91-1.45c.22-.56.4-1.18.55-1.84l.22-1.05h-.05c-.48.63-1.11,1.14-1.89,1.52s-1.67.57-2.66.57c-.85,0-1.61-.14-2.3-.42-.69-.28-1.28-.66-1.76-1.16-.49-.5-.86-1.09-1.13-1.79-.27-.7-.4-1.47-.4-2.32,0-1.12.18-2.18.54-3.17.36-.99.86-1.86,1.5-2.6.64-.74,1.41-1.33,2.3-1.75.89-.42,1.87-.63,2.94-.63,1.21,0,2.19.22,2.92.66.73.44,1.28,1.01,1.63,1.71h.08Zm-8.6,5.39c0,.97.28,1.79.84,2.45.56.66,1.37.99,2.41.99.64,0,1.25-.14,1.82-.41.57-.27,1.06-.65,1.48-1.13.41-.48.74-1.03.98-1.65.24-.62.36-1.28.36-1.98,0-1.01-.3-1.83-.91-2.47-.61-.64-1.42-.96-2.45-.96-.68,0-1.3.14-1.86.41-.56.27-1.04.65-1.43,1.11s-.7,1.01-.91,1.64c-.21.62-.32,1.29-.32,2.01Z"/></g></svg>